<?xml version="1.0" encoding="UTF-8"?>
<svg width="284px" height="156px" viewBox="0 0 284 156" version="1.1" xmlns="http://www.w3.org/2000/svg" xmlns:xlink="http://www.w3.org/1999/xlink">
    <title>编组 15</title>
    <g id="页面-1" stroke="none" stroke-width="1" fill="none" fill-rule="evenodd">
        <g id="saima01优化" transform="translate(-240.000000, -4395.000000)">
            <g id="编组-2" transform="translate(240.000000, 4195.000000)">
                <g id="编组-15" transform="translate(0.000000, 200.000000)">
                    <rect id="矩形" fill="#FFFBF9" x="0" y="0" width="284" height="156" rx="10"></rect>
                    <text id="AVALANCHE" font-family="Arial-BoldMT, Arial" font-size="24" font-weight="bold" line-spacing="24" fill="#282828">
                        <tspan x="66" y="126">AVALANCHE </tspan>
                    </text>
                    <g id="Avalanche" transform="translate(112.000000, 28.000000)" fill-rule="nonzero">
                        <path d="M0,30 C0,46.5685425 13.4314575,60 30,60 C46.5685425,60 60,46.5685425 60,30 C60,13.4314575 46.5685425,0 30,0 C13.4314575,0 0,13.4314575 0,30 Z" id="路径" fill="#E84142"></path>
                        <path d="M31.7966667,8.90666666 C30.7566667,7.11 29.1033333,7.11 28.0633334,8.90666666 L9.19000002,42.14 C8.15000004,43.96 9,45.4033334 11.08,45.4033334 L20.55,45.4033334 C22.4579275,45.286579 24.1960512,44.2677216 25.23,42.66 L36.6366667,22.89 C37.4634556,21.1814328 37.4634556,19.1885672 36.6366667,17.48 L33.2366667,11.5033334 L31.7966667,8.90333332 L31.7966667,8.90666666 Z M44.34,30.78 C43.3,28.9833333 41.6233334,28.9833333 40.5833333,30.78 L33.9933333,42.1433333 C32.9766667,43.9366666 33.8266667,45.4033334 35.8833333,45.4033334 L48.92,45.4033334 C51,45.4033334 51.8533333,43.9366667 50.81,42.1433333 L44.34,30.7766667 L44.34,30.78 L44.34,30.78 Z" id="形状" fill="#FFFFFF"></path>
                    </g>
                </g>
            </g>
        </g>
    </g>
</svg>