<?xml version="1.0" encoding="UTF-8"?>
<svg width="30px" height="30px" viewBox="0 0 30 30" version="1.1" xmlns="http://www.w3.org/2000/svg" xmlns:xlink="http://www.w3.org/1999/xlink">
    <title>discord</title>
    <g id="masai" stroke="none" stroke-width="1" fill="none" fill-rule="evenodd">
        <g id="saima01icon优化" transform="translate(-367.000000, -6.000000)" fill-rule="nonzero">
            <g id="discord" transform="translate(367.000000, 6.000000)">
                <path d="M0,15 C0,23.2842712 6.71572875,30 15,30 C23.2842712,30 30,23.2842712 30,15 C30,6.71572875 23.2842712,0 15,0 C6.71572875,0 0,6.71572875 0,15 Z" id="路径" fill="#5662F6"></path>
                <polygon id="路径" fill="#FFFFFF" points="5.29411765 6.61764706 24.2647059 6.61764706 24.2647059 20.7352941 5.29411765 20.7352941"></polygon>
                <path d="M20.3576278,27.3529412 L4.62410049,25.3114704 C2.9244098,25.0909267 3.01255053,19.6900451 3.16206979,17.9643342 L3.91938191,9.22433177 C4.06890116,7.4986209 6.08234957,5.68916222 7.77953857,5.4497399 L21.3480038,3.5358611 C23.045251,3.29649759 26.5038001,9.78901203 26.4703473,11.5209569 L26.217939,24.6097296 M14.9424418,8.77136428 C11.6161619,8.77136428 9.28281796,10.2142204 9.28281796,10.2142204 C10.5612076,9.05995315 12.7952696,8.39496958 12.7952696,8.39496958 L12.5842555,8.18168906 C10.4867389,8.21932853 8.58778614,9.68726784 8.58778614,9.68726784 C6.45300606,14.1914479 6.58952237,18.0808695 6.58952237,18.0808695 C8.32714557,20.351794 10.908709,20.1886798 10.908709,20.1886798 L11.7899417,19.0594957 C10.2384904,18.7207405 9.25800475,17.3280802 9.25800475,17.3280802 C9.25800475,17.3280802 11.5913487,18.934021 14.9424418,18.934021 C18.2935348,18.934021 20.6268788,17.3280802 20.6268788,17.3280802 C20.6268788,17.3280802 19.6463932,18.7207405 18.0949418,19.0594957 L18.9761746,20.1886798 C18.9761746,20.1886798 21.557738,20.351794 23.2953612,18.0808695 C23.2953612,18.0808695 23.4318775,14.1914479 21.2970974,9.68726784 C21.2970974,9.68726784 19.3981447,8.21932853 17.3006281,8.18168906 L17.0896139,8.39496958 C17.0896139,8.39496958 19.323676,9.05995315 20.6020656,10.2142204 C20.6020656,10.2142204 18.2687216,8.77136428 14.9424418,8.77136428 M12.3732704,13.5264937 C13.1800054,13.5264937 13.8378319,14.2416436 13.8254108,15.1199077 C13.8254108,15.9856155 13.1800054,16.7132923 12.3732704,16.7132923 C11.5789276,16.7132923 10.9335513,15.9856155 10.9335513,15.1199077 C10.9335513,14.2416436 11.5665355,13.5264937 12.3732704,13.5264937 M17.5488475,13.5264937 C18.3555824,13.5264937 19.0009878,14.2416436 19.0009878,15.1199077 C19.0009878,15.9856155 18.3555824,16.7132923 17.5488475,16.7132923 C16.7545046,16.7132923 16.1091283,15.9856155 16.1091283,15.1199077 C16.1091283,14.2416436 16.7421126,13.5264937 17.5488475,13.5264937 Z" id="形状" fill="#5662F6"></path>
            </g>
        </g>
    </g>
</svg>