<?xml version="1.0" encoding="UTF-8"?>
<svg width="9px" height="15px" viewBox="0 0 9 15" version="1.1" xmlns="http://www.w3.org/2000/svg" xmlns:xlink="http://www.w3.org/1999/xlink">
    <title>6f8e2979d428180222796ff4a33ab929备份 35</title>
    <g id="页面-1" stroke="none" stroke-width="1" fill="none" fill-rule="evenodd">
        <g id="all-collections" transform="translate(-116.000000, -621.000000)" fill-rule="nonzero">
            <g id="编组-15" transform="translate(80.000000, 372.000000)">
                <g id="编组-13" transform="translate(12.000000, 222.000000)">
                    <g id="编组-8" transform="translate(24.000000, 0.000000)">
                        <g id="编组-7" transform="translate(0.000000, 24.000000)">
                            <g id="6f8e2979d428180222796ff4a33ab929备份-35" transform="translate(0.000000, 3.000000)">
                                <polygon id="路径" fill="#424242" points="4.49864305 0 4.40039971 0.328132411 4.40039971 9.8497461 4.49864305 9.94610044 8.99734706 7.33355307"></polygon>
                                <polygon id="路径" fill="#818181" points="4.4986995 0 0 7.33355307 4.4986995 9.94612817 4.4986995 5.32464138"></polygon>
                                <polygon id="路径" fill="#424242" points="4.49861483 10.7829552 4.44324182 10.8492803 4.44324182 14.2410639 4.49861483 14.4 9 8.17171104"></polygon>
                                <polygon id="路径" fill="#818181" points="4.4986995 14.3999445 4.4986995 10.7829275 0 8.17168331"></polygon>
                                <polygon id="路径" fill="#171717" points="4.49861483 9.94607271 8.99726239 7.3335808 4.49861483 5.32464138"></polygon>
                                <polygon id="路径" fill="#424242" points="0 7.3335808 4.49864305 9.94607271 4.49864305 5.32464138"></polygon>
                            </g>
                        </g>
                    </g>
                </g>
            </g>
        </g>
    </g>
</svg>