<svg width="146" height="30" viewBox="0 0 146 30" fill="none" xmlns="http://www.w3.org/2000/svg">
<path fill-rule="evenodd" clip-rule="evenodd" d="M15.077 2.76316C8.27642 2.76316 2.77021 8.24546 2.77021 15C2.77021 21.7545 8.27642 27.2368 15.077 27.2368C18.1676 27.2368 20.9894 26.1057 23.151 24.2355V16.6012H20.3686V16.6067H17.9937L16.5967 15.2206L17.9937 13.8345H20.3686V13.8381H24.5361H25.9212V15.2197V24.846V25.4378L25.4917 25.8461C22.7859 28.4185 19.1153 30 15.077 30C6.75388 30 0 23.288 0 15C0 6.71205 6.75388 0 15.077 0C19.1153 0 22.7859 1.58146 25.4917 4.15393L23.5805 6.15409C21.3699 4.05252 18.3766 2.76316 15.077 2.76316ZM17.4477 11.9286L15.422 13.9599L13.3962 11.9286V8.47544L17.4477 8.47544V11.9286ZM14.3024 15.2206L12.266 13.2H8.80401V17.2411H12.266L14.3024 15.2206ZM15.422 16.4813L17.4477 18.5126V21.9657H13.3962V18.5126L15.422 16.4813ZM39.7589 22.8947V7.22891H37.1827V22.8947H39.7589ZM43.3446 10.9031C42.6365 12.1203 42.2825 13.4952 42.2825 15.028C42.2825 16.5608 42.6365 17.9358 43.3446 19.153C44.0678 20.3702 45.0395 21.3244 46.2598 22.0156C47.4801 22.6919 48.8285 23.03 50.3049 23.03C51.9771 23.03 53.4611 22.6242 54.7567 21.8128C56.0674 21.0013 57.0166 19.8442 57.6041 18.3415H54.5082C54.1014 19.168 53.5364 19.7841 52.8133 20.1898C52.0901 20.5956 51.254 20.7984 50.3049 20.7984C49.2654 20.7984 48.3388 20.5655 47.5253 20.0997C46.7118 19.6188 46.0715 18.9426 45.6044 18.071C45.1525 17.1994 44.9265 16.1851 44.9265 15.028C44.9265 13.8709 45.1525 12.8566 45.6044 11.985C46.0715 11.1134 46.7118 10.4447 47.5253 9.97888C48.3388 9.51304 49.2654 9.28012 50.3049 9.28012C51.254 9.28012 52.0901 9.48298 52.8133 9.88872C53.5364 10.2945 54.1014 10.9106 54.5082 11.7371H57.6041C57.0166 10.2343 56.0674 9.07725 54.7567 8.26578C53.4611 7.43929 51.9771 7.02604 50.3049 7.02604C48.8435 7.02604 47.4952 7.37166 46.2598 8.06291C45.0395 8.73914 44.0678 9.68585 43.3446 10.9031ZM76.1619 9.97888C76.885 10.3696 77.45 10.9556 77.8567 11.7371H80.9527C80.3651 10.2343 79.416 9.07725 78.1053 8.26578C76.8097 7.43929 75.3257 7.02604 73.6535 7.02604C72.1921 7.02604 70.8438 7.37166 69.6084 8.06291C68.3881 8.73914 67.4163 9.68585 66.6932 10.9031C65.9851 12.1203 65.6311 13.4952 65.6311 15.028C65.6311 16.5608 65.9851 17.9358 66.6932 19.153C67.4163 20.3702 68.3881 21.3244 69.6084 22.0156C70.8287 22.6919 72.177 23.03 73.6535 23.03C75.0244 23.03 76.2673 22.7294 77.3822 22.1284C78.5121 21.5122 79.4235 20.6933 80.1166 19.6714C80.8246 18.6496 81.2615 17.53 81.4273 16.3128V14.3067H72.7721V16.3579H78.6703C78.4744 17.6953 77.9396 18.7548 77.0658 19.5362C76.192 20.3176 75.0546 20.7083 73.6535 20.7083C72.6139 20.7083 71.6874 20.4754 70.8739 20.0095C70.0603 19.5437 69.4201 18.8825 68.953 18.0259C68.5011 17.1544 68.2751 16.1551 68.2751 15.028C68.2751 13.901 68.5011 12.9092 68.953 12.0526C69.4201 11.1961 70.0603 10.5349 70.8739 10.069C71.6874 9.6032 72.6139 9.37028 73.6535 9.37028C74.6026 9.37028 75.4387 9.57315 76.1619 9.97888ZM83.8778 13.3149C83.3655 14.2767 83.1094 15.3811 83.1094 16.6284C83.1094 17.8757 83.3655 18.9952 83.8778 19.987C84.405 20.9637 85.1131 21.7301 86.002 22.2861C86.8909 22.8271 87.8701 23.0976 88.9398 23.0976C89.904 23.0976 90.7627 22.9023 91.516 22.5115C92.2692 22.1208 92.8643 21.6325 93.3012 21.0464V22.8947H95.9V10.4748H93.3012V12.278C92.8643 11.707 92.2768 11.2336 91.5386 10.858C90.8154 10.4673 89.9642 10.2719 88.985 10.2719C87.9002 10.2719 86.9059 10.5424 86.002 11.0834C85.1131 11.6093 84.405 12.3532 83.8778 13.3149ZM92.7589 14.442C93.1204 15.0731 93.3012 15.8169 93.3012 16.6735C93.3012 17.53 93.1204 18.2814 92.7589 18.9276C92.4124 19.5587 91.9529 20.0396 91.3804 20.3702C90.8079 20.7008 90.1902 20.8661 89.5273 20.8661C88.8795 20.8661 88.2618 20.7008 87.6743 20.3702C87.1018 20.0245 86.6347 19.5287 86.2732 18.8825C85.9267 18.2363 85.7534 17.485 85.7534 16.6284C85.7534 15.7719 85.9267 15.0355 86.2732 14.4194C86.6347 13.7883 87.1018 13.3149 87.6743 12.9993C88.2468 12.6687 88.8644 12.5034 89.5273 12.5034C90.1902 12.5034 90.8079 12.6687 91.3804 12.9993C91.9529 13.3299 92.4124 13.8108 92.7589 14.442ZM116.978 10.8805C116.21 10.4748 115.336 10.2719 114.357 10.2719C113.438 10.2719 112.579 10.4973 111.781 10.9481C110.982 11.3839 110.395 11.9775 110.018 12.7289C109.596 11.9324 108.993 11.3238 108.21 10.9031C107.427 10.4823 106.538 10.2719 105.543 10.2719C104.805 10.2719 104.112 10.4147 103.464 10.7002C102.817 10.9857 102.282 11.3839 101.86 11.8948V10.4748H99.2838V22.8947H101.86V15.9522C101.86 14.8402 102.139 13.9911 102.696 13.4051C103.269 12.804 104.037 12.5034 105.001 12.5034C105.965 12.5034 106.726 12.804 107.284 13.4051C107.841 13.9911 108.12 14.8402 108.12 15.9522V22.8947H110.673V15.9522C110.673 14.8402 110.952 13.9911 111.509 13.4051C112.082 12.804 112.85 12.5034 113.814 12.5034C114.779 12.5034 115.539 12.804 116.097 13.4051C116.654 13.9911 116.933 14.8402 116.933 15.9522V22.8947H119.487V15.569C119.487 14.442 119.261 13.4802 118.809 12.6838C118.372 11.8873 117.762 11.2862 116.978 10.8805ZM134.086 17.6427C134.147 17.2671 134.177 16.8463 134.177 16.3805C134.177 15.1783 133.921 14.1189 133.409 13.2022C132.896 12.2705 132.181 11.5492 131.262 11.0383C130.343 10.5274 129.296 10.2719 128.121 10.2719C126.9 10.2719 125.816 10.5349 124.866 11.0608C123.932 11.5868 123.202 12.3381 122.674 13.3149C122.162 14.2767 121.906 15.3962 121.906 16.6735C121.906 17.9508 122.17 19.0778 122.697 20.0546C123.239 21.0163 123.978 21.7677 124.912 22.3087C125.861 22.8346 126.93 23.0976 128.121 23.0976C129.582 23.0976 130.802 22.737 131.781 22.0156C132.776 21.2793 133.461 20.3401 133.838 19.1981H131.058C130.486 20.3551 129.507 20.9337 128.121 20.9337C127.156 20.9337 126.343 20.6331 125.68 20.0321C125.017 19.431 124.648 18.6345 124.573 17.6427H134.086ZM130.471 13.2924C131.134 13.8634 131.473 14.6223 131.488 15.569H124.595C124.716 14.6073 125.092 13.8484 125.725 13.2924C126.358 12.7213 127.119 12.4358 128.008 12.4358C128.987 12.4358 129.808 12.7213 130.471 13.2924ZM138.588 22.5792C139.371 22.9248 140.253 23.0976 141.232 23.0976C142.196 23.0976 143.032 22.9398 143.74 22.6242C144.463 22.3087 145.021 21.8729 145.412 21.3169C145.804 20.7609 146 20.1297 146 19.4235C145.985 18.627 145.766 17.9884 145.345 17.5075C144.923 17.0266 144.418 16.666 143.831 16.4255C143.258 16.1701 142.52 15.9221 141.616 15.6817C140.938 15.4863 140.426 15.3286 140.079 15.2083C139.733 15.0731 139.439 14.8928 139.198 14.6674C138.957 14.442 138.836 14.1639 138.836 13.8334C138.836 13.4126 139.017 13.0745 139.379 12.819C139.74 12.5636 140.26 12.4358 140.938 12.4358C141.631 12.4358 142.181 12.6011 142.588 12.9317C142.994 13.2623 143.22 13.7056 143.266 14.2616H145.842C145.782 13.0294 145.315 12.0601 144.441 11.3539C143.582 10.6326 142.445 10.2719 141.028 10.2719C140.079 10.2719 139.236 10.4297 138.497 10.7453C137.774 11.0608 137.217 11.4966 136.825 12.0526C136.433 12.5936 136.238 13.1947 136.238 13.8559C136.238 14.6674 136.448 15.321 136.87 15.8169C137.307 16.3128 137.819 16.681 138.407 16.9214C138.995 17.1619 139.755 17.4098 140.689 17.6653C141.654 17.9358 142.354 18.1837 142.791 18.4091C143.243 18.6345 143.469 18.9802 143.469 19.446C143.469 19.8818 143.266 20.2424 142.859 20.528C142.467 20.7984 141.91 20.9337 141.187 20.9337C140.494 20.9337 139.914 20.7609 139.447 20.4153C138.995 20.0546 138.746 19.6113 138.701 19.0853H136.034C136.064 19.8367 136.305 20.5204 136.757 21.1366C137.209 21.7376 137.819 22.2185 138.588 22.5792Z" fill="white"/>
</svg>
