<?xml version="1.0" encoding="UTF-8"?>
<svg width="190px" height="44px" viewBox="0 0 190 44" version="1.1" xmlns="http://www.w3.org/2000/svg" xmlns:xlink="http://www.w3.org/1999/xlink">
    <title>logo</title>
    <g id="页面-1" stroke="none" stroke-width="1" fill="none" fill-rule="evenodd">
        <g id="saima01优化" transform="translate(-239.000000, -16.000000)">
            <g id="logo" transform="translate(240.000000, 17.000000)">
                <rect id="矩形" stroke="#000000" stroke-width="2" x="0" y="0" width="188" height="42" rx="21"></rect>
                <g id="编组" transform="translate(16.000000, 10.000000)" fill="#000000">
                    <path d="M16.3492599,2.54655564 C16.3558678,2.58661459 16.3624758,2.62667354 16.3689515,2.6667325 C16.2292599,2.75069713 16.0992159,2.86689462 15.9480264,2.91332056 C15.0891278,3.17728519 14.2229604,3.41724097 13.363533,3.67961385 C12.428511,3.96493441 11.4941498,4.25423434 10.5694361,4.5707266 C10.3992159,4.628958 10.145207,4.8369462 10.1556476,4.95553132 C10.186837,5.30770523 10.0548106,5.71612085 10.3363084,6.00966544 C10.5975859,6.28211938 10.6793921,6.55470597 10.5517269,6.91722623 C10.5048106,7.05066765 10.5480264,7.22363744 10.5751189,7.37419013 C10.696837,8.05307001 11.1989075,8.40763154 11.7404934,8.72425645 C11.8959119,8.81511864 12.0552952,8.89908327 12.2128282,8.98623139 C12.199348,9.0232395 12.1858678,9.06024761 12.1725198,9.09725571 C11.1654714,9.40870744 10.315163,9.07192041 9.52392952,8.27777155 C9.47820264,8.53006338 9.48626432,8.70648195 9.41384141,8.8385969 C9.26648458,9.10733677 9.126,9.42674724 8.88970044,9.58751363 C8.61163877,9.77653353 8.24199119,9.86169197 7.89996476,9.91806632 C6.496837,10.1491349 5.56604405,11.0316256 4.81181498,12.1475726 C4.63022907,12.4163125 4.44005286,12.5866293 4.12102203,12.6258924 C3.49961233,12.7025615 2.98723348,13.0011466 2.62604405,13.5018836 C2.13890749,14.1773147 1.67053744,14.8694591 1.24419383,15.5844186 C1.0821674,15.8562093 1.04318062,16.2079853 0.975911894,16.5292528 C0.883929515,16.9693707 0.839259912,17.4202329 0.734590308,17.856902 C0.653973568,18.1926279 0.512299559,18.5134974 0.39785022,18.8408666 C0.412387665,18.8485601 0.42692511,18.8563861 0.441594714,18.8642122 C0.652123348,18.5635048 0.862651982,18.2625321 1.07331278,17.9618246 L1.16542731,18.0171378 C1.13185903,19.2234164 0.480713656,20.2286043 5.28634361e-05,21.3559587 C0.196440529,21.3413677 0.335339207,21.346143 0.467762115,21.3189506 C1.50296035,21.1068504 2.25837885,20.5145881 2.75476652,19.5877937 C3.45903965,18.2727458 3.61948018,16.8497244 3.56410573,15.3859808 C3.54296035,14.8264819 3.59199119,14.2806455 3.90771806,13.7967546 C3.98489868,13.6784348 4.09538326,13.5820015 4.1906696,13.4756197 C4.22793833,13.4916699 4.26520705,13.50772 4.30260793,13.5239027 C4.27591189,13.8231511 4.2720793,14.1266441 4.21855507,14.4211172 C4.02269604,15.4992601 3.96903965,16.5648018 4.36961233,17.6154871 C4.59190308,18.198199 4.83692511,18.2708887 5.30767401,17.8567693 C5.70414978,17.5079116 6.07868722,17.1317288 6.49221145,16.8050228 C6.99732159,16.4058924 7.49106608,15.9677642 8.18357709,15.9109919 C8.24780617,15.9058187 8.33331278,15.8178747 8.36027313,15.7491643 C8.73269604,14.8014119 9.45996476,14.255045 10.3599648,13.8506087 C10.9516388,13.5846544 11.4933568,13.2064819 12.0574097,12.8785822 L12.0086432,12.7862609 L11.48437,12.9484864 C11.474326,12.9273957 11.4642819,12.9061724 11.45437,12.8849492 C11.5282467,12.8174326 11.6021233,12.749916 11.7008458,12.6598497 C11.564326,12.6472483 11.4671894,12.6383611 11.3245903,12.6250965 C11.531815,12.395885 11.7041498,12.2050081 11.9226079,11.9633279 C11.8078943,11.9121268 11.7291278,11.8769757 11.608467,11.8232542 C11.907674,11.6213677 12.142652,11.481294 12.3558238,11.3134974 C12.5532687,11.1579042 12.7275859,10.9725984 12.9119471,10.8004245 C12.8975419,10.7882211 12.8831366,10.7761503 12.8687313,10.7639469 C12.6731366,10.8520236 12.4774097,10.9401002 12.281815,11.0280442 C12.2659559,10.991434 12.2500969,10.9548239 12.23437,10.9180811 C12.3510661,10.849238 12.4677621,10.7805276 12.5991278,10.7030626 C12.526837,10.6618099 12.4770132,10.6331584 12.4271894,10.6046396 C12.4269251,10.5787738 12.426793,10.5529079 12.4266608,10.5271746 C12.7549427,10.4721268 13.0830925,10.4170789 13.4113744,10.362031 C13.4054273,10.3339101 13.3996123,10.3056566 13.3936652,10.2775357 C13.1253833,10.2996875 12.8572335,10.321972 12.6350749,10.3404097 C12.5124317,10.1097391 12.4162203,9.92894326 12.3436652,9.79258364 C12.7822996,9.66351953 13.2057357,9.53896536 13.6503172,9.40817686 C13.498467,9.18679145 13.3866608,9.02403537 13.2566167,8.83461754 C13.3861322,8.8103434 13.4479824,8.7986706 13.5103612,8.78699779 C13.4861762,8.68419749 13.4634449,8.5872336 13.4281586,8.43707885 C13.6048546,8.53245099 13.7274978,8.59864112 13.8502731,8.66483125 C13.8541057,8.56959175 13.8091718,8.53417539 13.7923877,8.48841268 C13.7338414,8.32870744 13.6850749,8.16542078 13.6323436,8.00359322 C13.7724317,7.96552395 13.9104053,7.91432277 14.0528722,7.89323213 C14.1822555,7.87399853 14.3163965,7.89190567 14.4480264,7.88567133 C14.8162203,7.86856006 15.1842819,7.84733677 15.6046784,7.82491968 C15.510185,7.60817686 15.4452952,7.45921592 15.3403612,7.2185969 C15.5650308,7.33691673 15.696793,7.40629035 15.8286872,7.47645984 C16.0384229,7.34792631 16.2459119,7.21514812 16.4600088,7.09430803 C16.5050749,7.06897273 16.5771013,7.07626824 16.6323436,7.08860427 C16.7248546,7.10916433 16.8200088,7.18318055 16.9031366,7.16951805 C17.3933128,7.08820634 17.6894802,7.31808106 17.9421674,7.71575239 C18.1334009,8.01699042 18.3872775,8.2840059 18.6415507,8.53775682 C18.960185,8.85570818 19.3322115,9.12232572 19.6298326,9.45699042 C19.7419031,9.58287104 19.8050749,9.90705674 19.7237974,10.0180811 C19.5675859,10.231773 19.2953392,10.3622962 19.0624758,10.5136448 C19.0371013,10.5300929 18.9567489,10.4491791 18.8968811,10.4266293 C18.7452952,10.3694591 18.5929163,10.2833721 18.4371013,10.2742196 C18.0550308,10.2522004 17.670978,10.2670567 17.2915507,10.2670567 C17.2915507,10.5442859 17.2733128,10.8411466 17.2956476,11.1346912 C17.3330485,11.6244186 17.3952952,12.1121562 17.4496123,12.6002918 C17.4798767,12.871552 17.5940617,13.1624436 17.5311542,13.4086338 C17.4180264,13.8520678 17.5741057,14.1192159 17.9323877,14.3042564 C18.2251189,14.4554724 18.2982026,14.6915814 18.279304,14.9885748 C18.268467,15.1594223 18.2597445,15.3304024 18.2474537,15.5447576 C18.6823877,15.3627679 19.0517709,15.1574326 19.4475859,15.052112 C20.5923436,14.7472926 21.7468811,14.4792159 22.9000969,14.2072926 C23.0248546,14.1778452 23.1657357,14.2176389 23.2992159,14.2251997 C23.2384229,14.3550597 23.2111982,14.5269683 23.111022,14.6078821 C22.5472335,15.0627237 21.9671894,15.4976684 21.3897885,15.9355313 C21.1570573,16.1119499 20.9635771,16.0736153 20.7624317,15.8506382 C20.6688634,15.7467767 20.4275419,15.6316404 20.3537974,15.6791275 C19.8957357,15.9734679 19.590978,16.4066883 19.3529604,16.9164451 C19.7725639,17.0757524 20.1411542,17.061692 20.5217709,16.944168 C20.7497445,16.8738659 21.0144581,16.7708003 21.224326,16.8267767 C21.6852952,16.9498718 21.9763084,16.7632395 22.2595242,16.4515225 C22.4202291,16.2745733 22.6115947,16.125745 22.7892159,15.9640501 C22.8274097,15.9928342 22.8657357,16.0214856 22.9040617,16.0502697 C22.7910661,16.3410287 22.6886432,16.6368283 22.5572775,16.919098 C22.5283348,16.9811761 22.3986872,17.0228268 22.3131806,17.0270715 C21.8405815,17.0509477 21.7685551,17.0992307 21.685163,17.5581842 C21.6399648,17.8070273 21.6066608,18.0599823 21.59437,18.3122741 C21.5789075,18.6304908 21.7222996,18.72772 21.9998326,18.5665556 C22.2337533,18.4307266 22.453533,18.2568283 22.6467489,18.0663493 C23.0273656,17.691493 23.3008018,17.2106529 23.7928282,16.9431069 C23.891815,16.8893854 23.9786432,16.7389654 23.9967489,16.6215741 C24.1361762,15.7179926 24.3213304,14.8142786 24.3604493,13.9049934 C24.3854273,13.3278526 24.1016828,12.9409256 23.5222996,12.9303139 C23.0615947,12.9219573 22.6016828,12.8738069 22.1412423,12.8423699 C22.0250749,12.8344112 21.9090396,12.8231363 21.7741057,12.8117288 C21.786793,12.699378 21.7837533,12.6217804 21.8052952,12.5517436 C22.0442379,11.7756345 22.1541938,10.9838732 22.1261762,10.1702255 C22.1206256,10.0119794 22.1806256,9.84670302 22.2321674,9.69190567 C22.5671894,8.68313633 23.3000088,7.91485335 23.8409339,7.03037288 C23.9037093,6.92743994 23.9806256,6.83286367 24.0545022,6.73696094 C24.2115066,6.53308475 24.3697004,6.53374797 24.6229163,6.62434488 C25.3400088,6.88114665 26.0800969,7.07308475 26.8092159,7.29672513 C27.0911101,7.38307738 27.3704934,7.47964333 27.6453833,7.58602506 C27.7034009,7.6085748 27.7597004,7.68789683 27.7785991,7.75222992 C27.9130044,8.20892852 27.9097004,8.20866323 28.385207,8.13531024 C28.4716388,8.12204569 28.5607137,8.12788209 28.6479383,8.1185969 C28.9349868,8.08795578 29.2434449,8.10944436 29.5031366,8.0073073 C29.7879383,7.89522181 30.0037533,6.90648195 29.81437,6.64981282 C29.4238414,6.12068976 29.0671454,5.53704937 28.5760441,5.11842004 C27.6081145,4.29363007 26.8464846,3.30900221 26.0934449,2.3038143 C25.9483348,2.10988651 25.7462643,1.92179514 25.5288634,1.82801474 C25.2144581,1.69258364 25.0874537,1.49374797 25.0352511,1.16810317 C24.97763,0.810888725 24.8516828,0.464683861 24.7422555,0.0654207811 C24.2840617,0.446378777 24.235163,0.89405748 24.1677621,1.34226676 C24.150978,1.45395431 24.0461762,1.62891378 23.9625198,1.64111717 C23.5229604,1.70531761 23.0778502,1.73821371 22.6336652,1.75956964 C22.172696,1.78172144 21.7030044,1.72388799 21.2724317,1.97578187 L22.1302731,1.97578187 C21.8500969,2.20685041 21.5195683,2.23231835 21.2263084,2.44322476 C20.9522115,2.64046868 20.6456035,2.77550184 20.4485551,3.06108769 C20.5257357,3.11388062 20.5804493,3.15141931 20.6573656,3.20421223 C20.3429604,3.32929698 20.0646344,3.44018865 19.7864405,3.55108032 C19.7933128,3.56885483 19.8000529,3.58676197 19.8069251,3.60453648 C19.9825639,3.58503758 20.1582026,3.56567133 20.3963524,3.53927487 C20.3263084,3.62655564 20.3163965,3.64976861 20.2992159,3.65839057 C20.2402731,3.68770523 20.1811982,3.72126455 20.1182907,3.73651879 C19.4197004,3.90564186 18.8798326,4.30782314 18.3994361,4.83389536 C17.9631806,5.3116846 17.4809339,5.74822108 17.0050308,6.18754311 C16.931022,6.25585556 16.7819471,6.24206043 16.66763,6.26620192 C16.6731806,6.14562712 16.6474097,6.01112454 16.6924758,5.90779366 C16.7478502,5.78098452 16.8564846,5.67486809 16.9522996,5.56928224 C17.390141,5.08738099 17.6559119,4.55666618 17.4522555,3.88335741 C17.4449868,3.85934856 17.4697004,3.82592189 17.4765727,3.80522918 C17.6474537,3.86385851 17.8110661,3.92262049 17.9761322,3.97607664 C18.2100529,4.05194989 18.3765727,3.9742196 18.4992159,3.75946647 C18.6017709,3.5801297 18.7032687,3.38925276 18.8482467,3.24811791 C18.9978502,3.10260575 18.9732687,2.98428592 18.9238414,2.81184672 C18.8202291,2.4494591 19.0074978,2.19424908 19.3719912,2.15564923 C19.4157357,2.15100663 19.4693921,2.15883272 19.500978,2.13628298 C19.6109339,2.05749153 19.7130925,1.96795578 19.8182907,1.88253206 C19.7313304,1.8069241 19.655207,1.70956227 19.5554273,1.65942225 C19.0908899,1.42530287 18.608511,1.55808106 18.1303612,1.60676197 C18.0242379,1.61750626 17.9161322,1.60835372 17.8090837,1.60835372 C17.8024758,1.56298895 17.7957357,1.51775682 17.7892599,1.47252469 C18.2023877,1.38524392 18.6155154,1.29796315 19.0447665,1.20736625 C19.0193921,1.12114665 19.0064405,1.04540604 18.9757797,0.977756817 C18.5444141,0.0293411938 17.119348,-0.172147384 16.266,0.577830508 C15.728511,1.05044657 15.8148106,1.63063817 15.9231806,2.22833898 C15.9642819,2.45516286 16.0242819,2.6457745 16.3492599,2.54655564" id="Fill-1"></path>
                </g>
                <g id="编组" transform="translate(52.000000, 15.000000)" fill="#000000">
                    <path d="M49.4665574,1.56617705 C49.3921967,1.50991475 49.3174426,1.4540459 49.243082,1.39778361 C48.615541,2.16066885 47.988,2.9235541 47.2857049,3.77771803 C49.291082,4.04250492 49.1219016,4.12316066 49.4665574,1.56617705 M45.9078689,4.44499672 C46.2352131,4.09365246 46.5841967,3.74427541 46.9048525,3.37089836 C47.689377,2.45771803 48.440459,1.51424262 49.2446557,0.618767213 C49.8426885,-0.0469377049 50.4891148,0.037652459 51.0647213,0.601062295 C50.7869508,1.84866885 50.4517377,3.04473443 50.2695738,4.26361967 C50.0925246,5.45142295 50.0720656,6.66243934 49.9784262,7.92814426 C49.2363934,8.07332459 48.8409836,7.82348852 48.8641967,6.98820984 C48.8850492,6.2410623 48.8685246,5.49312787 48.8685246,4.74165246 C47.1676721,4.31909508 46.8737705,4.4595541 46.3190164,6.08722623 C46.099082,6.7312918 45.9594098,7.40211148 45.7776393,8.08276721 C45.0895082,8.0170623 44.9462951,7.60119344 45.139082,7.0570623 C45.3672787,6.41220984 45.6934426,5.80198033 45.9259672,5.1583082 C46.0022951,4.94781639 45.9180984,4.67909508 45.9078689,4.44499672" id="Fill-1"></path>
                    <path d="M88.9284197,1.48740984 C88.6203541,1.07862295 88.2276984,1.16557377 87.8873705,1.7667541 C86.9871738,3.35783607 86.0968131,4.95442623 85.198977,6.54668852 C85.072682,6.77016393 84.9263213,6.98262295 84.7894033,7.20019672 C84.7012721,7.16636066 84.613141,7.13213115 84.5250098,7.09790164 C84.7870426,5.55954098 84.9892721,4.00740984 85.3288131,2.48596721 C85.6164197,1.19508197 85.6301902,1.11678689 84.2983869,0.794163934 C83.3198951,2.96242623 82.3390426,5.13501639 81.3585836,7.308 C81.2027803,7.26393443 81.0473705,7.21986885 80.8915672,7.17580328 C81.1638295,5.49580328 81.3814033,3.80439344 81.7256656,2.13934426 C81.962518,0.996393443 81.9007475,0.81895082 80.5532066,0.636393443 C80.330518,2.28177049 80.0873705,3.92557377 79.8965508,5.57527869 C79.8178623,6.25357377 79.7796984,6.95429508 79.8670426,7.62590164 C79.9056,7.9237377 80.2624525,8.32898361 80.5480918,8.4037377 C80.824682,8.4757377 81.3412721,8.28059016 81.4982557,8.03783607 C81.9751082,7.30170492 82.3370754,6.49003279 82.7281574,5.7 C83.0000262,5.15114754 83.2467148,4.58931148 83.5044197,4.03377049 C83.570518,5.26170492 83.5028459,6.4282623 83.4080262,7.59285246 C83.3596328,8.18340984 83.6067148,8.51822951 84.1693377,8.6602623 C84.7579279,8.80898361 84.9440262,8.43285246 85.1871738,7.99967213 C86.3808787,5.87390164 87.6123541,3.76898361 88.9284197,1.48740984" id="Fill-3"></path>
                    <path d="M103.551502,10.2307279 C104.260485,7.72646557 104.978518,5.21472787 106.818256,3.22744918 C106.370125,2.55112131 105.936944,2.50312131 105.594256,3.23335082 C105.039502,4.41643279 104.528026,5.61997377 104.015764,6.82233443 C103.821403,7.27912131 103.673862,7.75597377 103.504682,8.22338361 C103.389403,8.20135082 103.274518,8.17892459 103.159239,8.15649836 C103.246584,6.71217049 103.207633,5.24502295 103.461403,3.82980984 C103.65419,2.75492459 103.225338,2.41380984 102.331436,2.20961311 C102.113469,2.53420328 101.86442,2.83479344 101.690911,3.17433443 C100.7856,4.94718689 99.8539279,6.70941639 99.026518,8.51885902 C98.656682,9.32777705 98.8242885,9.49774426 99.6930098,9.71453115 C100.072682,7.58521967 100.79819,5.59125246 102.062321,3.78338361 C102.231895,5.58180984 102.232289,7.34482623 102.231895,9.10784262 C102.231895,9.95138361 102.707567,10.2523672 103.551502,10.2307279" id="Fill-7"></path>
                    <path d="M95.1182164,1.54599344 C94.815659,2.0200918 94.4721836,2.46153443 94.2317902,2.95373115 C93.4433311,4.56605902 92.6639213,6.18428852 91.942741,7.82730492 C91.7019541,8.37576393 91.6484459,9.00605902 92.5655607,9.15950164 C92.9609705,7.03451803 93.615659,5.03071475 94.7727738,2.94664918 C94.8974951,4.95399344 95.004118,6.67727213 95.1131016,8.40015738 C95.1666098,9.24173115 95.600577,9.62179672 96.4763803,9.5191082 C97.1621508,7.01327213 97.8125115,4.51176393 99.6660197,2.45327213 C99.4303475,2.25851803 99.1970361,2.06494426 98.7150689,1.66520656 C97.853823,3.76855082 97.0641836,5.6976 96.2312656,7.73327213 C96.2312656,6.11582951 96.0833311,4.60146885 96.2800525,3.13353443 C96.4268066,2.0413377 96.0129049,1.72068197 95.1182164,1.54599344" id="Fill-9"></path>
                    <path d="M64.7239869,0.092852459 C64.4926426,0.518163934 64.2337574,0.899016393 64.0669377,1.31685246 C63.3536262,3.1042623 62.6470033,4.89521311 61.9820852,6.70111475 C61.7570361,7.31331148 61.932118,7.79291803 62.741823,7.84013115 C62.9515279,5.66793443 63.4944787,3.62085246 64.5134951,1.69416393 C64.6571016,2.05140984 64.6708721,2.39567213 64.712577,2.73678689 C64.8856918,4.16380328 65.0564459,5.59160656 65.2508066,7.01586885 C65.3613639,7.82872131 65.8386098,8.10963934 66.6691672,7.88970492 C67.0728393,5.32131148 67.6173639,2.81429508 69.2320525,0.70504918 C68.6658885,-0.0904918033 68.2452984,0.148327869 67.9911344,0.875016393 C67.5595279,2.10727869 67.1837902,3.35881967 66.7938885,4.6052459 C66.6557902,5.04590164 66.5448393,5.49521311 66.4212984,5.94098361 L66.0699541,5.90163934 C66.0329705,4.45416393 65.8925115,2.99960656 65.9944131,1.56196721 C66.0656262,0.557508197 65.7123148,0.174295082 64.7239869,0.092852459" id="Fill-11"></path>
                    <path d="M27.486059,2.76975738 C27.8366164,2.2299541 27.8334689,1.73972459 27.2082885,1.64097049 C26.1979279,1.48123279 25.1344525,1.39467541 24.1296,1.53474098 C23.2443541,1.65828197 22.6427803,2.3554623 22.5648787,3.31939672 C22.4885508,4.27231475 23.1475672,4.7259541 23.8982557,5.05015082 C24.798059,5.43926557 25.7395672,5.73592131 26.6224525,6.1576918 C27.4242885,6.54090492 27.4569443,7.26680656 26.7097967,7.7444459 C26.3958295,7.94510164 25.9807475,8.04503607 25.6022557,8.07533115 C24.184682,8.18942951 22.9713049,7.74562623 22.0490754,6.52792131 C21.4797639,7.33447869 21.5911082,8.07572459 22.3303869,8.40267541 C23.317141,8.83939672 24.4085508,9.1549377 25.4795016,9.25565902 C26.5602885,9.35677377 27.4172066,8.49238033 27.6210098,7.46234754 C27.8547148,6.2804459 27.4958951,5.57421639 26.3281574,5.02654426 C25.5003541,4.63860984 24.630059,4.33723279 23.8215344,3.91624918 C23.522518,3.7604459 23.3442885,3.37251148 23.110977,3.09041311 C23.4210098,2.8779541 23.7337967,2.48097049 24.0402885,2.4856918 C25.1403541,2.50221639 26.238059,2.65487213 27.486059,2.76975738" id="Fill-13"></path>
                    <path d="M12.8664,3.45442623 C12.7704,3.48786885 12.6744,3.52131148 12.5784,3.55514754 C12.5784,4.36878689 12.6413508,5.18832787 12.565023,5.99488525 C12.4159082,7.57337705 11.9064,9.00944262 10.534859,9.96708197 C9.44148197,10.7311475 8.5381377,10.3428197 8.56135082,9.00865574 C8.58102295,7.86059016 8.79348197,6.67318033 9.16331803,5.58570492 C9.55085902,4.44629508 10.4424,3.65114754 11.7789246,3.43003279 C10.5773508,2.47160656 9.68935082,2.52118033 8.80843279,3.576 C7.61512131,5.00380328 7.20908852,6.69560656 7.27833443,8.52118033 C7.3621377,10.7425574 8.89577705,11.5872787 10.7429902,10.3589508 C12.7066623,9.05311475 13.5391869,7.12367213 13.3963672,4.79803279 C13.3680393,4.34085246 13.0505311,3.90177049 12.8664,3.45442623" id="Fill-15"></path>
                    <path d="M107.516262,6.25502951 C107.388787,6.87627541 107.360459,7.32047213 107.200721,7.71116066 C106.992197,8.2210623 106.669574,8.68335738 106.413049,9.17516066 C106.070754,9.83102951 106.338295,10.496341 107.055148,10.5388328 C108.275213,10.6112262 109.502361,10.5588984 110.787344,10.5588984 C110.764525,10.4215869 110.755475,10.0348328 110.68977,10.0249967 C109.630623,9.86565246 108.564393,9.75391475 107.501311,9.63194754 C108.136721,7.23863607 108.379475,7.05371803 111.073377,6.98525902 C111.109967,5.74316066 109.983934,6.23496393 109.477967,5.98001311 C109.932,3.77712787 111.498689,3.89043934 113.215279,4.07850492 C112.964262,3.69843934 112.695148,3.35889836 112.385115,3.31561967 C111.223672,3.15391475 110.048852,3.08034098 108.877967,2.99850492 C108.716262,2.98709508 108.45541,3.07365246 108.401508,3.18932459 C108.338951,3.32545574 108.40859,3.57057049 108.501443,3.71732459 C108.599803,3.87234098 108.792984,3.96716066 108.912197,4.06198033 C108.340525,5.8100459 108.197311,6.0103082 107.516262,6.25502951" id="Fill-17"></path>
                    <path d="M34.9921967,1.40018361 C34.6046557,0.610544262 31.6947541,0.594413115 30.3299016,1.24634754 C30.4522623,1.88529836 30.7194098,2.50182295 30.6375738,3.06759344 C30.5510164,3.66523279 30.1316066,4.21487213 29.8825574,4.73421639 C29.8825574,5.11349508 29.9498361,5.49356066 29.868,5.83821639 C29.7243934,6.43979016 29.476918,7.01579016 29.2967213,7.60988852 C29.107082,8.23428197 29.5131148,8.89998689 30.118623,8.83860984 C31.3689836,8.71113443 32.6091148,8.48962623 33.9342295,8.29487213 C33.8276066,8.01238033 33.7445902,7.62877377 33.6745574,7.63113443 C32.6008525,7.66733115 31.5283279,7.75388852 30.3314754,7.83729836 C30.591541,6.96110164 30.622623,5.92634754 31.1518033,5.34798689 C31.6479344,4.80582295 32.6720656,4.74641311 33.4892459,4.46588852 C33.279541,3.32805246 32.3065574,4.09801967 31.7616393,3.82811803 C32.0500328,1.96005246 32.1224262,1.90536393 34.9921967,1.40018361" id="Fill-19"></path>
                    <path d="M73.7351607,5.6667541 C73.4050623,6.15344262 73.1324066,6.69442623 72.7326689,7.11540984 C71.929259,7.96131148 71.0184393,7.77009836 70.9287344,6.63383607 C70.8378492,5.47514754 70.935423,4.16813115 71.4099148,3.13770492 C71.8533246,2.17495082 72.8707672,1.45691803 73.705259,0.708590164 C73.8712918,0.559868852 74.3520787,0.762491803 74.6876852,0.803016393 C74.6219803,1.10203279 74.541718,1.39868852 74.4945049,1.70045902 C74.4504393,1.98216393 74.4413902,2.26937705 74.4166033,2.55422951 C74.5987672,2.58570492 74.7805377,2.61757377 74.9627016,2.64944262 C75.1070951,2.10531148 75.4903082,1.4695082 75.3262426,1.04419672 C75.1775213,0.659016393 74.4240787,0.28052459 73.9531279,0.299016393 C73.2425705,0.327737705 72.4466361,0.560262295 71.8631607,0.961967213 C70.3192918,2.02465574 69.5328,3.57836066 69.4702426,5.46295082 C69.426177,6.77429508 69.8774557,7.57416393 70.8134557,7.94832787 C71.8210623,8.35121311 72.5804066,8.15331148 73.4975213,7.12445902 C73.9665049,6.59921311 74.3253246,5.97481967 74.7230951,5.38780328 C74.8308984,5.22806557 75.0146361,4.95855738 74.9611279,4.88340984 C74.8305049,4.70006557 74.5684721,4.47147541 74.3827672,4.49036066 C73.595882,4.56944262 72.8180459,4.73232787 72.0366689,4.86491803 C72.0331279,5.00380328 72.0291934,5.14308197 72.0256525,5.28236066 C72.5324066,5.39645902 73.0395541,5.51055738 73.7351607,5.6667541" id="Fill-21"></path>
                    <path d="M57.2800918,6.24751475 C57.1545836,6.12121967 57.0282885,5.99492459 56.9027803,5.86862951 C56.4605508,6.1971541 56.0336656,6.54771148 55.5737311,6.84908852 C54.5334689,7.53131803 53.9338623,7.24253115 53.8433705,5.97761311 C53.7080262,4.08397377 54.3450098,2.43151475 55.6087475,1.04030164 C55.8991082,0.720432787 56.3433049,0.466268852 56.7627148,0.356104918 C57.3552393,0.200695082 57.6452066,0.513088525 57.4185836,1.13000656 C57.3418623,1.33774426 57.1120918,1.49748197 57.0640918,1.70482623 C57.010977,1.93499016 57.086518,2.1946623 57.1057967,2.44135082 C57.3457967,2.35833443 57.7463213,2.33000656 57.796682,2.18246557 C57.9662557,1.6851541 58.2503213,0.997416393 58.0417967,0.660629508 C57.8017967,0.274268852 57.073141,-0.0235672131 56.5746492,0.00161311475 C53.761141,0.142465574 51.4858623,4.30626885 52.7877639,6.82744918 C53.394059,8.00148197 54.7136656,8.26233443 55.7342557,7.42626885 C56.2355016,7.0159082 56.7638951,6.63938361 57.2800918,6.24751475" id="Fill-23"></path>
                    <path d="M92.0213902,1.84260984 C91.8183738,1.68090492 91.3470295,1.04706885 90.9504393,1.9087082 C90.1246033,3.70516721 89.3876852,5.54608525 88.6983738,7.39998689 C88.4764721,7.99605246 88.6960131,8.60234754 89.2185049,8.82700328 C90.1375869,6.53677377 91.0397508,4.28864262 92.0213902,1.84260984" id="Fill-25"></path>
                    <path d="M61.6682754,0.584498361 C61.4676197,0.440104918 60.9278164,-0.111501639 60.6075541,0.743055738 C59.9115541,2.5981377 59.3080131,4.49335082 58.7910295,6.40587541 C58.6781115,6.82292459 59.0865049,7.38043279 59.2859803,7.9666623 C60.1185049,5.38725246 60.8727344,3.04980984 61.6682754,0.584498361" id="Fill-27"></path>
                    <path d="M88.9284197,1.48740984 C87.6123541,3.76898361 86.3808787,5.87390164 85.1871738,7.99967213 C84.9440262,8.43285246 84.7579279,8.80898361 84.1693377,8.6602623 C83.6067148,8.51822951 83.3596328,8.18340984 83.4080262,7.59285246 C83.5028459,6.4282623 83.570518,5.26170492 83.5044197,4.03377049 C83.2467148,4.58931148 83.0000262,5.15114754 82.7281574,5.7 C82.3370754,6.49003279 81.9751082,7.30170492 81.4982557,8.03783607 C81.3412721,8.28059016 80.824682,8.4757377 80.5480918,8.4037377 C80.2624525,8.32898361 79.9056,7.9237377 79.8670426,7.62590164 C79.7796984,6.95429508 79.8178623,6.25357377 79.8965508,5.57527869 C80.0873705,3.92557377 80.330518,2.28177049 80.5532066,0.636393443 C81.9007475,0.81895082 81.962518,0.996393443 81.7256656,2.13934426 C81.3814033,3.80439344 81.1638295,5.49580328 80.8915672,7.17580328 C81.0473705,7.21986885 81.2027803,7.26393443 81.3585836,7.308 C82.3390426,5.13501639 83.3198951,2.96242623 84.2983869,0.794163934 C85.6301902,1.11678689 85.6164197,1.19508197 85.3288131,2.48596721 C84.9892721,4.00740984 84.7870426,5.55954098 84.5250098,7.09790164 C84.613141,7.13213115 84.7012721,7.16636066 84.7894033,7.20019672 C84.9263213,6.98262295 85.072682,6.77016393 85.198977,6.54668852 C86.0968131,4.95442623 86.9871738,3.35783607 87.8873705,1.7667541 C88.2276984,1.16557377 88.6203541,1.07862295 88.9284197,1.48740984" id="Fill-29"></path>
                    <path d="M1.39471475,3.98868197 C2.70055082,4.20940328 2.86225574,4.4643541 2.50304262,5.59550164 C2.34015738,6.1093377 2.19025574,6.62750164 1.98920656,7.29517377 C2.75327213,7.12599344 3.35956721,7.02920656 3.93674754,6.84192787 C4.11615738,6.78369836 4.27078033,6.4988459 4.34120656,6.28599344 C4.52651803,5.72927213 4.63274754,5.14658361 4.81845246,4.5898623 C5.16468197,3.55078033 5.26028852,3.52441967 6.08179672,3.94697705 C5.62068197,6.42448525 5.17058361,8.84612459 4.72441967,11.2449443 C3.93596066,10.9805508 3.93596066,10.9805508 3.91943607,7.99117377 C2.57779672,7.87982951 1.66146885,8.23078033 1.50251803,8.97517377 C1.30068197,9.92297705 1.1578623,10.8837639 0.979632787,11.8953049 C0.162059016,11.7560262 -0.152301639,11.425141 0.0684196721,10.5556328 C0.276157377,9.73727213 0.220681967,8.85399344 0.407567213,8.02776393 C0.557862295,7.36363279 0.967829508,6.75930492 1.13268197,6.0963541 C1.30225574,5.41491148 1.31405902,4.69451803 1.39471475,3.98868197" id="Fill-31"></path>
                    <path d="M115.847725,7.16175738 C115.924446,7.30064262 116.001167,7.43952787 116.077889,7.57841311 C116.991069,7.32188852 117.95697,7.17513443 118.799331,6.77106885 C119.392643,6.48660984 119.649167,5.68792131 119.052315,5.21460984 C118.665954,4.90851148 117.717757,4.74956066 117.428184,4.99782295 C116.76838,5.56438033 116.358807,6.42247869 115.847725,7.16175738 M113.787266,4.37697049 C115.375593,3.7954623 116.894675,3.62549508 118.365757,4.18654426 C118.911069,4.39428197 119.569298,5.06864262 119.626348,5.59074098 C119.690479,6.17224918 119.268315,6.97605246 118.801298,7.40136393 C118.285495,7.87074098 117.478938,8.02103607 116.627134,8.38339672 C117.015462,9.39297049 117.42897,10.4702164 117.849167,11.5647738 C117.172446,12.1124459 116.766413,12.0471344 116.492184,11.2063475 C116.280905,10.5599213 116.225036,9.8647082 116.049167,9.20451148 C115.940577,8.7976918 115.735987,8.4164459 115.574675,8.02379016 C115.289036,8.34680656 114.941626,8.63401967 114.731134,8.99992131 C114.310544,9.73133115 113.964708,10.5056262 113.563003,11.3121836 C112.825692,11.0104131 112.538085,10.6460852 113.03579,9.86313443 C113.822675,8.62536393 114.534807,7.33959344 115.266216,6.0672 C115.438938,5.76739672 115.562479,5.43965902 115.81743,4.88962623 C115.16943,5.06942951 114.75238,5.18510164 114.21179,5.33460984 C114.09179,5.06392131 113.959987,4.76687213 113.787266,4.37697049" id="Fill-33"></path>
                    <path d="M17.1624,5.56052459 C18.3801049,5.49521311 19.3318426,5.23947541 19.9574164,4.42622951 C20.2037115,4.10518033 20.2741377,3.48118033 20.1403672,3.09363934 C20.0514492,2.83593443 19.4455475,2.60144262 19.0945967,2.6317377 C18.7389246,2.66242623 18.2754492,2.95396721 18.0999738,3.2667541 C17.7246295,3.936 17.5043016,4.69180328 17.1624,5.56052459 M18.2805639,6.52013115 C18.8679738,7.368 19.5289574,8.32131148 20.193482,9.28052459 C19.5596459,9.95331148 19.1925639,9.96393443 18.742859,9.17036066 C18.3258098,8.43580328 18.0385967,7.62845902 17.6616787,6.86990164 C17.559777,6.66491803 17.3390557,6.51895082 17.1726295,6.34583607 C17.0187934,6.52839344 16.7839082,6.68813115 16.7241049,6.89783607 C16.4294164,7.92196721 16.1815475,8.95986885 15.9061377,10.0367213 C15.0684984,9.82504918 14.8257443,9.4402623 15.1098098,8.61678689 C15.6924984,6.93088525 16.1835148,5.2135082 16.7115148,3.50911475 C16.6403016,3.44734426 16.5683016,3.38596721 16.4970885,3.32419672 C16.0934164,3.54059016 15.6905311,3.75737705 15.197941,4.02137705 C15.0208918,3.79947541 14.8320393,3.56340984 14.5625311,3.22622951 C16.1441705,2.20288525 17.7191213,1.58714754 19.5057443,2.05495082 C20.6982689,2.36734426 21.1365639,3.70780328 20.3551869,4.7307541 C19.8629902,5.376 19.109941,5.82216393 18.2805639,6.52013115" id="Fill-35"></path>
                    <path d="M40.9902689,3.87206557 C42.2142689,3.90472131 43.1632525,3.64662295 43.8954492,2.8762623 C44.3408262,2.40767213 44.5009574,1.70065574 43.9072525,1.34931148 C43.4717115,1.092 42.4818098,1.01803279 42.2669902,1.28596721 C41.7039738,1.98668852 41.4309246,2.91914754 40.9902689,3.87206557 M41.9581377,4.76006557 C42.5746623,5.77396721 43.1620721,6.73868852 43.7632525,7.72740984 C43.1943344,8.45409836 42.8414164,8.4812459 42.411777,7.66013115 C42.0360393,6.94209836 41.8058754,6.14931148 41.4761705,5.40491803 C41.355777,5.13265574 41.133482,4.9052459 40.9576131,4.65737705 C40.7707279,4.88636066 40.5047607,5.08701639 40.4111213,5.34904918 C40.0747279,6.29527869 39.7965639,7.26196721 39.4778754,8.27901639 C38.7547279,8.05986885 38.4033836,7.76045902 38.7354492,6.94445902 C39.3000393,5.55481967 39.7883016,4.13370492 40.2966295,2.72163934 C40.4123016,2.40019672 40.4784,2.06065574 40.6279082,1.50354098 C40.0035148,1.80767213 39.5829246,2.01304918 39.1552525,2.22157377 C38.4958426,1.67940984 38.4966295,1.19862295 39.3236459,0.970032787 C40.3505311,0.685967213 41.4018098,0.43652459 42.4585967,0.331081967 C43.3879082,0.238622951 44.2381377,0.582491803 44.5458098,1.58695082 C44.8456131,2.5642623 44.3844984,3.31809836 43.6168918,3.87009836 C43.1746623,4.188 42.6521705,4.39416393 41.9581377,4.76006557" id="Fill-37"></path>
                    <path d="M103.551502,10.2307279 C102.707567,10.2523672 102.231895,9.95138361 102.231895,9.10784262 C102.232289,7.34482623 102.231895,5.58180984 102.062321,3.78338361 C100.79819,5.59125246 100.072682,7.58521967 99.6930098,9.71453115 C98.8242885,9.49774426 98.656682,9.32777705 99.026518,8.51885902 C99.8539279,6.70941639 100.7856,4.94718689 101.690911,3.17433443 C101.86442,2.83479344 102.113469,2.53420328 102.331436,2.20961311 C103.225338,2.41380984 103.65419,2.75492459 103.461403,3.82980984 C103.207633,5.24502295 103.246584,6.71217049 103.159239,8.15649836 C103.274518,8.17892459 103.389403,8.20135082 103.504682,8.22338361 C103.673862,7.75597377 103.821403,7.27912131 104.015764,6.82233443 C104.528026,5.61997377 105.039502,4.41643279 105.594256,3.23335082 C105.936944,2.50312131 106.370125,2.55112131 106.818256,3.22744918 C104.978518,5.21472787 104.260485,7.72646557 103.551502,10.2307279" id="Fill-39"></path>
                    <path d="M95.1182164,1.54599344 C96.0129049,1.72068197 96.4268066,2.0413377 96.2800525,3.13353443 C96.0833311,4.60146885 96.2312656,6.11582951 96.2312656,7.73327213 C97.0641836,5.6976 97.853823,3.76855082 98.7150689,1.66520656 C99.1970361,2.06494426 99.4303475,2.25851803 99.6660197,2.45327213 C97.8125115,4.51176393 97.1621508,7.01327213 96.4763803,9.5191082 C95.600577,9.62179672 95.1666098,9.24173115 95.1131016,8.40015738 C95.004118,6.67727213 94.8974951,4.95399344 94.7727738,2.94664918 C93.615659,5.03071475 92.9609705,7.03451803 92.5655607,9.15950164 C91.6484459,9.00605902 91.7019541,8.37576393 91.942741,7.82730492 C92.6639213,6.18428852 93.4433311,4.56605902 94.2317902,2.95373115 C94.4721836,2.46153443 94.815659,2.0200918 95.1182164,1.54599344" id="Fill-41"></path>
                    <path d="M64.7239869,0.092852459 C65.7123148,0.174295082 66.0656262,0.557508197 65.9944131,1.56196721 C65.8925115,2.99960656 66.0329705,4.45416393 66.0699541,5.90163934 L66.4212984,5.94098361 C66.5448393,5.49521311 66.6557902,5.04590164 66.7938885,4.6052459 C67.1837902,3.35881967 67.5595279,2.10727869 67.9911344,0.875016393 C68.2452984,0.148327869 68.6658885,-0.0904918033 69.2320525,0.70504918 C67.6173639,2.81429508 67.0728393,5.32131148 66.6691672,7.88970492 C65.8386098,8.10963934 65.3613639,7.82872131 65.2508066,7.01586885 C65.0564459,5.59160656 64.8856918,4.16380328 64.712577,2.73678689 C64.6708721,2.39567213 64.6571016,2.05140984 64.5134951,1.69416393 C63.4944787,3.62085246 62.9515279,5.66793443 62.741823,7.84013115 C61.932118,7.79291803 61.7570361,7.31331148 61.9820852,6.70111475 C62.6470033,4.89521311 63.3536262,3.1042623 64.0669377,1.31685246 C64.2337574,0.899016393 64.4926426,0.518163934 64.7239869,0.092852459" id="Fill-43"></path>
                    <path d="M27.486059,2.76975738 C26.238059,2.65487213 25.1403541,2.50221639 24.0402885,2.4856918 C23.7337967,2.48097049 23.4210098,2.8779541 23.110977,3.09041311 C23.3442885,3.37251148 23.522518,3.7604459 23.8215344,3.91624918 C24.630059,4.33723279 25.5003541,4.63860984 26.3281574,5.02654426 C27.4958951,5.57421639 27.8547148,6.2804459 27.6210098,7.46234754 C27.4172066,8.49238033 26.5602885,9.35677377 25.4795016,9.25565902 C24.4085508,9.1549377 23.317141,8.83939672 22.3303869,8.40267541 C21.5911082,8.07572459 21.4797639,7.33447869 22.0490754,6.52792131 C22.9713049,7.74562623 24.184682,8.18942951 25.6022557,8.07533115 C25.9807475,8.04503607 26.3958295,7.94510164 26.7097967,7.7444459 C27.4569443,7.26680656 27.4242885,6.54090492 26.6224525,6.1576918 C25.7395672,5.73592131 24.798059,5.43926557 23.8982557,5.05015082 C23.1475672,4.7259541 22.4885508,4.27231475 22.5648787,3.31939672 C22.6427803,2.3554623 23.2443541,1.65828197 24.1296,1.53474098 C25.1344525,1.39467541 26.1979279,1.48123279 27.2082885,1.64097049 C27.8334689,1.73972459 27.8366164,2.2299541 27.486059,2.76975738" id="Fill-45"></path>
                    <path d="M12.8664,3.45442623 C13.0505311,3.90177049 13.3680393,4.34085246 13.3963672,4.79803279 C13.5391869,7.12367213 12.7066623,9.05311475 10.7429902,10.3589508 C8.89577705,11.5872787 7.3621377,10.7425574 7.27833443,8.52118033 C7.20908852,6.69560656 7.61512131,5.00380328 8.80843279,3.576 C9.68935082,2.52118033 10.5773508,2.47160656 11.7789246,3.43003279 C10.4424,3.65114754 9.55085902,4.44629508 9.16331803,5.58570492 C8.79348197,6.67318033 8.58102295,7.86059016 8.56135082,9.00865574 C8.5381377,10.3428197 9.44148197,10.7311475 10.534859,9.96708197 C11.9064,9.00944262 12.4159082,7.57337705 12.565023,5.99488525 C12.6413508,5.18832787 12.5784,4.36878689 12.5784,3.55514754 C12.6744,3.52131148 12.7704,3.48786885 12.8664,3.45442623" id="Fill-47"></path>
                    <path d="M107.516262,6.25502951 C108.197311,6.0103082 108.340525,5.8100459 108.912197,4.06198033 C108.792984,3.96716066 108.599803,3.87234098 108.501443,3.71732459 C108.40859,3.57057049 108.338951,3.32545574 108.401508,3.18932459 C108.45541,3.07365246 108.716262,2.98709508 108.877967,2.99850492 C110.048852,3.08034098 111.223672,3.15391475 112.385115,3.31561967 C112.695148,3.35889836 112.964262,3.69843934 113.215279,4.07850492 C111.498689,3.89043934 109.932,3.77712787 109.477967,5.98001311 C109.983934,6.23496393 111.109967,5.74316066 111.073377,6.98525902 C108.379475,7.05371803 108.136721,7.23863607 107.501311,9.63194754 C108.564393,9.75391475 109.630623,9.86565246 110.68977,10.0249967 C110.755475,10.0348328 110.764525,10.4215869 110.787344,10.5588984 C109.502361,10.5588984 108.275213,10.6112262 107.055148,10.5388328 C106.338295,10.496341 106.070754,9.83102951 106.413049,9.17516066 C106.669574,8.68335738 106.992197,8.2210623 107.200721,7.71116066 C107.360459,7.32047213 107.388787,6.87627541 107.516262,6.25502951" id="Fill-49"></path>
                    <path d="M34.9921967,1.40018361 C32.1224262,1.90536393 32.0500328,1.96005246 31.7616393,3.82811803 C32.3065574,4.09801967 33.279541,3.32805246 33.4892459,4.46588852 C32.6720656,4.74641311 31.6479344,4.80582295 31.1518033,5.34798689 C30.622623,5.92634754 30.591541,6.96110164 30.3314754,7.83729836 C31.5283279,7.75388852 32.6008525,7.66733115 33.6745574,7.63113443 C33.7445902,7.62877377 33.8276066,8.01238033 33.9342295,8.29487213 C32.6091148,8.48962623 31.3689836,8.71113443 30.118623,8.83860984 C29.5131148,8.89998689 29.107082,8.23428197 29.2967213,7.60988852 C29.476918,7.01579016 29.7243934,6.43979016 29.868,5.83821639 C29.9498361,5.49356066 29.8825574,5.11349508 29.8825574,4.73421639 C30.1316066,4.21487213 30.5510164,3.66523279 30.6375738,3.06759344 C30.7194098,2.50182295 30.4522623,1.88529836 30.3299016,1.24634754 C31.6947541,0.594413115 34.6046557,0.610544262 34.9921967,1.40018361" id="Fill-51"></path>
                    <path d="M73.7351607,5.6667541 C73.0395541,5.51055738 72.5324066,5.39645902 72.0256525,5.28236066 C72.0291934,5.14308197 72.0331279,5.00380328 72.0366689,4.86491803 C72.8180459,4.73232787 73.595882,4.56944262 74.3827672,4.49036066 C74.5684721,4.47147541 74.8305049,4.70006557 74.9611279,4.88340984 C75.0146361,4.95855738 74.8308984,5.22806557 74.7230951,5.38780328 C74.3253246,5.97481967 73.9665049,6.59921311 73.4975213,7.12445902 C72.5804066,8.15331148 71.8210623,8.35121311 70.8134557,7.94832787 C69.8774557,7.57416393 69.426177,6.77429508 69.4702426,5.46295082 C69.5328,3.57836066 70.3192918,2.02465574 71.8631607,0.961967213 C72.4466361,0.560262295 73.2425705,0.327737705 73.9531279,0.299016393 C74.4240787,0.28052459 75.1775213,0.659016393 75.3262426,1.04419672 C75.4903082,1.4695082 75.1070951,2.10531148 74.9627016,2.64944262 C74.7805377,2.61757377 74.5987672,2.58570492 74.4166033,2.55422951 C74.4413902,2.26937705 74.4504393,1.98216393 74.4945049,1.70045902 C74.541718,1.39868852 74.6219803,1.10203279 74.6876852,0.803016393 C74.3520787,0.762491803 73.8712918,0.559868852 73.705259,0.708590164 C72.8707672,1.45691803 71.8533246,2.17495082 71.4099148,3.13770492 C70.935423,4.16813115 70.8378492,5.47514754 70.9287344,6.63383607 C71.0184393,7.77009836 71.929259,7.96131148 72.7326689,7.11540984 C73.1324066,6.69442623 73.4050623,6.15344262 73.7351607,5.6667541" id="Fill-53"></path>
                    <path d="M57.2800918,6.24751475 C56.7638951,6.63938361 56.2355016,7.0159082 55.7342557,7.42626885 C54.7136656,8.26233443 53.394059,8.00148197 52.7877639,6.82744918 C51.4858623,4.30626885 53.761141,0.142465574 56.5746492,0.00161311475 C57.073141,-0.0235672131 57.8017967,0.274268852 58.0417967,0.660629508 C58.2503213,0.997416393 57.9662557,1.6851541 57.796682,2.18246557 C57.7463213,2.33000656 57.3457967,2.35833443 57.1057967,2.44135082 C57.086518,2.1946623 57.010977,1.93499016 57.0640918,1.70482623 C57.1120918,1.49748197 57.3418623,1.33774426 57.4185836,1.13000656 C57.6452066,0.513088525 57.3552393,0.200695082 56.7627148,0.356104918 C56.3433049,0.466268852 55.8991082,0.720432787 55.6087475,1.04030164 C54.3450098,2.43151475 53.7080262,4.08397377 53.8433705,5.97761311 C53.9338623,7.24253115 54.5334689,7.53131803 55.5737311,6.84908852 C56.0336656,6.54771148 56.4605508,6.1971541 56.9027803,5.86862951 C57.0282885,5.99492459 57.1545836,6.12121967 57.2800918,6.24751475" id="Fill-55"></path>
                    <path d="M92.0213902,1.84260984 C91.0397508,4.28864262 90.1375869,6.53677377 89.2185049,8.82700328 C88.6960131,8.60234754 88.4764721,7.99605246 88.6983738,7.39998689 C89.3876852,5.54608525 90.1246033,3.70516721 90.9504393,1.9087082 C91.3470295,1.04706885 91.8183738,1.68090492 92.0213902,1.84260984" id="Fill-57"></path>
                    <path d="M61.6682754,0.584498361 C60.8727344,3.04980984 60.1185049,5.38725246 59.2859803,7.9666623 C59.0865049,7.38043279 58.6781115,6.82292459 58.7910295,6.40587541 C59.3080131,4.49335082 59.9115541,2.5981377 60.6075541,0.743055738 C60.9278164,-0.111501639 61.4676197,0.440104918 61.6682754,0.584498361" id="Fill-59"></path>
                </g>
            </g>
        </g>
    </g>
</svg>