<?xml version="1.0" encoding="UTF-8"?>
<svg width="284px" height="156px" viewBox="0 0 284 156" version="1.1" xmlns="http://www.w3.org/2000/svg" xmlns:xlink="http://www.w3.org/1999/xlink">
    <title>编组 17</title>
    <g id="页面-1" stroke="none" stroke-width="1" fill="none" fill-rule="evenodd">
        <g id="saima01优化" transform="translate(-1011.000000, -4395.000000)">
            <g id="编组-2" transform="translate(240.000000, 4195.000000)">
                <g id="编组-17" transform="translate(771.000000, 200.000000)">
                    <rect id="矩形备份-2" fill="#FFFBF9" x="0" y="0" width="284" height="156" rx="10"></rect>
                    <text id="METAMASK" font-family="ArialMT, Arial" font-size="24" font-weight="normal" line-spacing="24" fill="#282828">
                        <tspan x="75" y="126">METAMASK</tspan>
                    </text>
                    <g id="metamask" transform="translate(112.000000, 29.000000)" fill-rule="nonzero">
                        <polygon id="路径" fill="#E17726" points="56.7817164 0.0380241935 33.4608209 17.1915726 37.7966418 7.08270161 56.7817164 0.0343145161"></polygon>
                        <path d="M2.99813433,0.0380241935 L26.113806,17.3547984 L21.983209,7.07899194 L2.99813433,0.041733871 L2.99813433,0.0380241935 Z M48.3824627,39.8206048 L42.1772388,49.2431855 L55.4645522,52.882379 L59.2705224,40.0283468 L48.3824627,39.8206048 Z M0.524253731,40.0209274 L4.30410448,52.8749597 L17.5690299,49.2394758 L11.386194,39.8168952 L0.524253731,40.0209274 L0.524253731,40.0209274 Z" id="形状" fill="#E27625"></path>
                        <path d="M16.863806,23.8949597 L13.1697761,29.4297984 L26.3190299,30.0233468 L25.8824627,15.95625 L16.863806,23.8949597 L16.863806,23.8949597 Z M42.9197761,23.8949597 L33.7593284,15.7930242 L33.4608209,30.0196371 L46.6100746,29.4260887 L42.9160448,23.8875403 L42.9197761,23.8949597 Z M17.5727612,49.2394758 L25.5279851,45.4185081 L18.6772388,40.1136694 L17.5727612,49.2394758 L17.5727612,49.2394758 Z M34.2518657,45.4185081 L42.1847015,49.2394758 L41.1026119,40.1136694 L34.2518657,45.4185081 Z" id="形状" fill="#E27625"></path>
                        <path d="M42.1847015,49.2431855 L34.2518657,45.4222177 L34.8973881,50.5452823 L34.8264925,52.7191532 L42.1847015,49.2431855 L42.1847015,49.2431855 Z M17.5727612,49.2431855 L24.9533582,52.7191532 L24.9085821,50.5452823 L25.5279851,45.4222177 L17.5727612,49.2431855 L17.5727612,49.2431855 Z" id="形状" fill="#D5BFB2"></path>
                        <path d="M25.0914179,36.7267339 L18.494403,34.8014113 L23.1548507,32.6720565 L25.0951493,36.7230242 L25.0914179,36.7267339 Z M34.6884328,36.7267339 L36.6287313,32.6757661 L41.3078358,34.805121 L34.6884328,36.7267339 L34.6884328,36.7267339 Z" id="形状" fill="#233447"></path>
                        <path d="M17.5764925,49.2468952 L18.7294776,39.8243145 L11.3936567,40.0283468 L17.5764925,49.2468952 Z M41.0541045,39.8131855 L42.1847015,49.2357661 L48.3899254,40.0209274 L41.0541045,39.8131855 L41.0541045,39.8131855 Z M46.6100746,29.4297984 L33.4608209,30.0233468 L34.6847015,36.7304435 L36.6212687,32.6794758 L41.3041045,34.805121 L46.6100746,29.4297984 L46.6100746,29.4297984 Z M18.5018657,34.805121 L23.1585821,32.6794758 L25.0988806,36.7267339 L26.3190299,30.0270565 L13.1735075,29.4335081 L18.5018657,34.8014113 L18.5018657,34.805121 Z" id="形状" fill="#CC6228"></path>
                        <path d="M13.1735075,29.4297984 L18.6847015,40.1136694 L18.4981343,34.8088306 L13.1735075,29.4297984 L13.1735075,29.4297984 Z M41.3078358,34.805121 L41.1026119,40.1136694 L46.613806,29.4297984 L41.3078358,34.8088306 L41.3078358,34.805121 Z M26.3152985,30.0270565 L25.0914179,36.7267339 L26.636194,44.6431855 L26.983209,34.2115726 L26.3115672,30.0233468 L26.3152985,30.0270565 Z M33.4645522,30.0270565 L32.8190299,34.1893145 L33.1436567,44.6431855 L34.6884328,36.7267339 L33.4645522,30.0270565 L33.4645522,30.0270565 Z" id="形状" fill="#E27525"></path>
                        <path d="M34.6884328,36.7304435 L33.1436567,44.6431855 L34.2518657,45.4222177 L41.1026119,40.117379 L41.3078358,34.8088306 L34.6884328,36.7304435 L34.6884328,36.7304435 Z M18.494403,34.8088306 L18.6809701,40.1136694 L25.5317164,45.4185081 L26.636194,44.6431855 L25.0914179,36.7304435 L18.494403,34.8088306 L18.494403,34.8088306 Z" id="形状" fill="#F5841F"></path>
                        <polygon id="路径" fill="#C0AC9D" points="34.8264925 52.7191532 34.8936567 50.5452823 34.2966418 50.0407661 25.483209 50.0407661 24.9085821 50.5452823 24.9533582 52.7191532 17.5727612 49.2394758 20.1548507 51.3428629 25.3899254 54.9375403 34.363806 54.9375403 39.625 51.3428629 42.1847015 49.2394758"></polygon>
                        <polygon id="路径" fill="#161616" points="34.2518657 45.4222177 33.1436567 44.6431855 26.636194 44.6431855 25.5317164 45.4222177 24.9085821 50.5489919 25.483209 50.0444758 34.3003731 50.0444758 34.8973881 50.5489919 34.255597 45.4222177"></polygon>
                        <path d="M57.7817164,18.3156048 L59.7406716,8.84479839 L56.7891791,0.0380241935 L34.2518657,16.6202823 L42.9197761,23.8949597 L55.1697761,27.4414113 L57.8675373,24.3067339 L56.6921642,23.4609274 L58.5578358,21.7693145 L57.1287313,20.67125 L58.9981343,19.2504435 L57.7779851,18.3156048 L57.7817164,18.3156048 Z M0.0391791045,8.84479839 L2.02425373,18.3156048 L0.755597015,19.2504435 L2.64738806,20.67125 L1.21455224,21.7693145 L3.08395522,23.4609274 L1.90858209,24.3067339 L4.60634328,27.4414113 L16.8563433,23.8949597 L25.5317164,16.6239919 L2.99440299,0.0343145161 L0.0354477612,8.84479839 L0.0391791045,8.84479839 Z" id="形状" fill="#763E1A"></path>
                        <path d="M55.1735075,27.4414113 L42.9197761,23.8949597 L46.613806,29.4297984 L41.0988806,40.1136694 L48.386194,40.0246371 L59.2742537,40.0246371 L55.1697761,27.4414113 L55.1735075,27.4414113 Z M16.8563433,23.8949597 L4.60634328,27.4414113 L0.524253731,40.0246371 L11.386194,40.0246371 L18.6772388,40.1136694 L13.1660448,29.4297984 L16.8563433,23.8949597 L16.8563433,23.8949597 Z M33.4645522,30.0233468 L34.2481343,16.6165726 L37.8041045,7.07899194 L21.9794776,7.07899194 L25.5317164,16.6165726 L26.3152985,30.0233468 L26.613806,34.2338306 L26.636194,44.6394758 L33.1436567,44.6394758 L33.1660448,34.2338306 L33.4645522,30.0233468 Z" id="形状" fill="#F5841F"></path>
                    </g>
                </g>
            </g>
        </g>
    </g>
</svg>