<svg width="18" height="18" viewBox="0 0 18 18" fill="none" xmlns="http://www.w3.org/2000/svg">
<path d="M8.40229 1.87777C8.59436 1.48866 8.6904 1.2941 8.82077 1.23194C8.9342 1.17785 9.06599 1.17785 9.17942 1.23194C9.30979 1.2941 9.40583 1.48866 9.5979 1.87777L11.4201 5.56941C11.4768 5.68429 11.5052 5.74173 11.5466 5.78632C11.5833 5.82581 11.6273 5.8578 11.6762 5.88053C11.7314 5.9062 11.7948 5.91546 11.9215 5.93399L15.9976 6.52976C16.4268 6.5925 16.6414 6.62387 16.7407 6.72871C16.8271 6.81992 16.8678 6.94526 16.8513 7.06982C16.8324 7.21299 16.6771 7.36433 16.3663 7.66699L13.418 10.5387C13.326 10.6282 13.2801 10.673 13.2504 10.7262C13.2242 10.7734 13.2073 10.8252 13.2008 10.8788C13.1935 10.9393 13.2043 11.0025 13.226 11.129L13.9217 15.1851C13.9951 15.6129 14.0318 15.8268 13.9628 15.9538C13.9028 16.0642 13.7962 16.1417 13.6726 16.1646C13.5306 16.1909 13.3385 16.0899 12.9543 15.8879L9.3104 13.9715C9.19686 13.9118 9.14009 13.882 9.08028 13.8702C9.02733 13.8599 8.97286 13.8599 8.91991 13.8702C8.8601 13.882 8.80333 13.9118 8.68979 13.9715L5.04585 15.8879C4.66168 16.0899 4.46959 16.1909 4.32756 16.1646C4.20398 16.1417 4.09735 16.0642 4.03736 15.9538C3.96841 15.8268 4.0051 15.6129 4.07848 15.1851L4.77415 11.129C4.79584 11.0025 4.80669 10.9393 4.79935 10.8788C4.79285 10.8252 4.77601 10.7734 4.74975 10.7262C4.7201 10.673 4.67414 10.6282 4.58224 10.5387L1.63388 7.66699C1.32313 7.36433 1.16776 7.21299 1.14885 7.06982C1.1324 6.94526 1.17304 6.81992 1.25946 6.72871C1.35878 6.62387 1.57339 6.5925 2.00262 6.52976L6.07867 5.93399C6.20543 5.91546 6.26881 5.9062 6.32401 5.88053C6.37288 5.8578 6.41688 5.82581 6.45357 5.78632C6.495 5.74173 6.52336 5.68429 6.58006 5.56941L8.40229 1.87777Z" stroke="#D5FF40" stroke-width="1.66667" stroke-linecap="round" stroke-linejoin="round"/>
</svg>
