<?xml version="1.0" encoding="UTF-8"?>
<svg width="30px" height="30px" viewBox="0 0 30 30" version="1.1" xmlns="http://www.w3.org/2000/svg" xmlns:xlink="http://www.w3.org/1999/xlink">
    <title>telegram</title>
    <g id="masai" stroke="none" stroke-width="1" fill="none" fill-rule="evenodd">
        <g id="saima01icon优化" transform="translate(-317.000000, -6.000000)" fill-rule="nonzero">
            <g id="telegram" transform="translate(317.000000, 6.000000)">
                <path d="M0,15 C0,23.2842712 6.71572875,30 15,30 C23.2842712,30 30,23.2842712 30,15 C30,6.71572875 23.2842712,0 15,0 C6.71572875,0 0,6.71572875 0,15 Z" id="路径" fill="#28A8E9"></path>
                <path d="M12.7333333,22.8111111 L13.05,17.8388889 L21.8111111,9.70555556 C22.2,9.34444444 21.7333333,9.16666667 21.2166667,9.48333334 L10.4055555,16.5222222 L5.73333334,14.9944444 C4.72777778,14.7 4.71666668,13.9833333 5.96111112,13.4666667 L24.1722222,6.22777778 C25.0055556,5.8388889 25.8055556,6.4388889 25.4833333,7.75555556 L22.3833333,22.8111111 C22.1666667,23.8833333 21.5388889,24.1444444 20.6722222,23.65 L15.95,20.05 L13.6777778,22.3222222 C13.4564754,22.6236045 13.1071798,22.8044163 12.7333333,22.8111111 Z" id="路径" fill="#F5F5F5"></path>
            </g>
        </g>
    </g>
</svg>