<?xml version="1.0" encoding="UTF-8"?>
<svg width="30px" height="30px" viewBox="0 0 30 30" version="1.1" xmlns="http://www.w3.org/2000/svg" xmlns:xlink="http://www.w3.org/1999/xlink">
    <title>twitter-circle-fill</title>
    <g id="masai" stroke="none" stroke-width="1" fill="none" fill-rule="evenodd">
        <g id="saima01icon优化" transform="translate(-267.000000, -6.000000)" fill-rule="nonzero">
            <g id="twitter-circle-fill" transform="translate(267.000000, 6.000000)">
                <path d="M15,0 C6.71651786,0 0,6.71651786 0,15 C0,23.2834821 6.71651786,30 15,30 C23.2834821,30 30,23.2834821 30,15 C30,6.71651786 23.2834821,0 15,0 Z" id="形状" fill="#1E84F1"></path>
                <path d="M22.2087054,11.3069196 C22.21875,11.4642857 22.21875,11.6283482 22.21875,11.7890625 C22.21875,16.7042411 18.4754464,22.3660714 11.6350446,22.3660714 C9.52566964,22.3660714 7.5703125,21.7533482 5.92299107,20.6986607 C6.22433036,20.7321429 6.51227679,20.7455357 6.8203125,20.7455357 C8.56138393,20.7455357 10.1618304,20.15625 11.4375,19.1584821 C9.80357143,19.125 8.43080357,18.0535714 7.96205357,16.5803571 C8.53459821,16.6640625 9.05022321,16.6640625 9.63950893,16.5133929 C7.93861607,16.1685268 6.66294643,14.671875 6.66294643,12.8638393 L6.66294643,12.8169643 C7.15513393,13.0948661 7.734375,13.265625 8.34040179,13.2890625 C7.30580357,12.5993304 6.68303571,11.4375 6.68303571,10.1953125 C6.68303571,9.50223214 6.86383929,8.86941964 7.18861607,8.3203125 C9.02008929,10.5770089 11.7723214,12.0502232 14.8560268,12.2075893 C14.3303571,9.6796875 16.21875,7.63392857 18.4888393,7.63392857 C19.5602679,7.63392857 20.5245536,8.08258929 21.2042411,8.80580357 C22.0446429,8.6484375 22.8482143,8.33370536 23.5647321,7.91183036 C23.2868304,8.77232143 22.7042411,9.49888393 21.9308036,9.95758929 C22.6808036,9.87723214 23.4040179,9.66964286 24.0736607,9.37834821 C23.5680804,10.1216518 22.9352679,10.78125 22.2087054,11.3069196 L22.2087054,11.3069196 Z" id="路径" fill="#FFFFFF"></path>
            </g>
        </g>
    </g>
</svg>