<?xml version="1.0" encoding="UTF-8"?>
<svg width="284px" height="156px" viewBox="0 0 284 156" version="1.1" xmlns="http://www.w3.org/2000/svg" xmlns:xlink="http://www.w3.org/1999/xlink">
    <title>编组 16</title>
    <g id="页面-1" stroke="none" stroke-width="1" fill="none" fill-rule="evenodd">
        <g id="saima01优化" transform="translate(-625.000000, -4395.000000)">
            <g id="编组-2" transform="translate(240.000000, 4195.000000)">
                <g id="编组-16" transform="translate(385.000000, 200.000000)">
                    <rect id="矩形备份" fill="#FFFBF9" x="0" y="0" width="284" height="156" rx="10"></rect>
                    <text id="WalletConnect" font-family="Arial-BoldMT, Arial" font-size="24" font-weight="bold" line-spacing="24" fill="#3B99FC">
                        <tspan x="59" y="126">WalletConnect</tspan>
                    </text>
                    <g id="WalletConnect" transform="translate(112.000054, 39.000000)" fill="#3B99FC" fill-rule="nonzero">
                        <path d="M12.2846626,7.59599857 C22.0690865,-2.53199952 37.9344429,-2.53199952 47.7173287,7.59599857 L48.8948067,8.81552189 C49.1291231,9.0561448 49.2613139,9.38659337 49.2613139,9.73171102 C49.2613139,10.0768287 49.1291231,10.4072772 48.8948067,10.6479001 L44.8673287,14.8178656 C44.6206976,15.070095 44.2289744,15.070095 43.9823433,14.8178656 L42.3608711,13.1391071 C35.5359444,6.07561568 24.4660469,6.07561568 17.6411202,13.1391071 L15.9056465,14.936686 C15.6590108,15.1889404 15.2672603,15.1889404 15.0206246,14.936686 L10.9916817,10.7666432 C10.7568828,10.5259643 10.624383,10.1951641 10.624383,9.84964209 C10.624383,9.50412012 10.7568828,9.17331989 10.9916817,8.93264098 L12.2846626,7.59595991 L12.2846626,7.59599857 Z M56.0482247,17.2178815 L59.63321,20.9286118 C59.8679974,21.1692894 60.0004898,21.5000812 60.0004898,21.8455936 C60.0004898,22.1911059 59.8679974,22.5218978 59.63321,22.7625753 L43.4678536,39.494791 C42.9747219,40.0011073 42.189513,40.0011073 41.6963814,39.494791 L30.2214913,27.619905 C30.0981796,27.4937802 29.9023103,27.4937802 29.7789986,27.619905 L18.3056099,39.494791 C17.8126665,40.0000804 17.0285826,40.0000804 16.5356392,39.494791 L0.367279828,22.76099 C0.132492462,22.5203125 -2.48689958e-14,22.1895206 -2.48689958e-14,21.8440083 C-2.48689958e-14,21.4984959 0.132492462,21.1677041 0.367279828,20.9270265 L3.95226518,17.2162962 C4.44520858,16.7110068 5.22929248,16.7110068 5.72223588,17.2162962 L17.1970894,29.0911822 C17.3201363,29.2178904 17.5181099,29.2178904 17.6396187,29.0911822 L29.1144722,17.2162962 C29.6074202,16.7109818 30.3915315,16.7109818 30.8844795,17.2162962 L42.3593331,29.0911822 C42.4808785,29.2178904 42.6788521,29.2178904 42.8018623,29.0911822 L54.2767159,17.2162962 C54.7696639,16.7109818 55.5537752,16.7109818 56.0467232,17.2162962 L56.0482247,17.2178815 Z" id="形状"></path>
                    </g>
                </g>
            </g>
        </g>
    </g>
</svg>