<?xml version="1.0" encoding="UTF-8"?>
<svg width="24px" height="18px" viewBox="0 0 24 18" version="1.1" xmlns="http://www.w3.org/2000/svg" xmlns:xlink="http://www.w3.org/1999/xlink">
    <title>形状备份 4</title>
    <g id="页面-1" stroke="none" stroke-width="1" fill="none" fill-rule="evenodd">
        <g id="hover1" transform="translate(-1132.000000, -2487.000000)" fill="#FFFFFF">
            <g id="编组-41" transform="translate(0.000000, 2313.000000)">
                <g id="编组-36" transform="translate(0.000000, 99.000000)">
                    <g id="编组-31" transform="translate(80.000000, 60.000000)">
                        <g id="编组-28" transform="translate(976.000000, 0.000000)">
                            <g id="编组-27" transform="translate(64.000000, 0.000000)">
                                <path d="M20.7328767,15.6 L20.9383562,15.8401638 C17.239726,16.8801535 15.5342466,18.4601379 15.5342466,18.4601379 C15.5342466,18.4601379 15.9863014,18.2201403 16.7465753,17.8801436 C21.4812714,15.8558668 27.2148705,15.8563355 32.0958904,18.4601379 C32.0958904,18.4601379 30.4726027,16.9601527 26.9794521,15.920163 L27.2671233,15.6 L27.3530797,15.6005713 C27.8460863,15.6110776 30.3856691,15.7617031 33.0410959,17.7001454 C33.0410959,17.7001454 36,22.9200938 36,29.3600301 C36,29.3600301 34.2534247,32.2600014 29.7123288,32.4 C29.7123288,32.4 28.9726027,31.5400085 28.3561644,30.780016 C31.0479452,30.0400233 32.0753425,28.4000396 32.0753425,28.4000396 C31.2328767,28.9400342 30.4315068,29.3200305 29.7123288,29.5800279 C25.2852098,31.3898537 20.3586794,30.7704849 16.890411,28.8800348 C16.8486729,28.8529257 16.3502247,28.5859752 16.0479452,28.3800398 C16.0479452,28.3800398 17.0342466,29.9800239 19.6438356,30.7400164 C19.0273973,31.5000089 18.2671233,32.4 18.2671233,32.4 C13.7260274,32.2600014 12,29.3600301 12,29.3600301 C12,22.9200938 14.9589041,17.7001454 14.9589041,17.7001454 C17.6143309,15.7617031 20.1539137,15.6110776 20.6469203,15.6005713 L20.7328767,15.6 Z M27.6575342,23.0600924 C26.4863014,23.0600924 25.5616438,24.0600924 25.5616438,25.2800704 C25.5616438,26.5000584 26.5068493,27.5000485 27.6575342,27.5000485 C28.8287671,27.5000485 29.7534247,26.5000584 29.7534247,25.2800704 C29.7534247,24.0600924 28.8287671,23.0600924 27.6575342,23.0600924 Z M20.1575342,23.0600924 C18.9863014,23.0600924 18.0616438,24.0600924 18.0616438,25.2800704 C18.0616438,26.5000584 19.0068493,27.5000485 20.1575342,27.5000485 C21.3287671,27.5000485 22.2534247,26.5000584 22.2534247,25.2800704 C22.2739726,24.0600924 21.3287671,23.0600924 20.1575342,23.0600924 Z" id="形状备份-4"></path>
                            </g>
                        </g>
                    </g>
                </g>
            </g>
        </g>
    </g>
</svg>