<?xml version="1.0" standalone="no"?><!DOCTYPE svg PUBLIC "-//W3C//DTD SVG 1.1//EN" "http://www.w3.org/Graphics/SVG/1.1/DTD/svg11.dtd"><svg t="1679882900312" class="icon" viewBox="0 0 1475 1024" version="1.1" xmlns="http://www.w3.org/2000/svg" p-id="2326" xmlns:xlink="http://www.w3.org/1999/xlink" width="288.0859375" height="200"><path d="M1341.277619 298.011508c-6.233039 14.453423-17.374218 26.287162-31.436194 33.423539L677.985966 652.391363a67.840752 67.840752 0 0 1-59.831147 0.752783L165.160465 437.637592a67.690196 67.690196 0 0 1-15.687986-10.328175 187.503047 187.503047 0 0 0-40.349138 58.084693 123.576763 123.576763 0 0 0 53.056105 158.987648l6.142705 3.161687 392.289979 190.002284a129.177465 129.177465 0 0 1 53.296996-50.075087c48.569522-24.691264 105.178761-16.109544 142.908216 17.253773l-2.469127-4.637139 457.661605-232.459214c-2.469126-48.147964 23.66748-95.934593 70.400213-119.662295 62.932611-31.948086 139.355083-8.13005 170.731055 53.206662 31.315749 61.336712 5.721146 136.976291-57.211465 168.924377-52.393657 26.618387-114.151927 14.543757-151.459824-25.654825l-448.778773 227.942519c10.68951 53.688443-15.808431 110.598794-68.202088 137.18707-62.932611 31.978198-139.385194 8.160162-170.731054-53.176551a121.619529 121.619529 0 0 1-12.887635-44.504497l-4.607029 9.003278-409.513641-198.313003C29.087513 673.890829-14.031864 555.7341 31.406083 453.205133a275.849593 275.849593 0 0 1 116.952278-128.334348l15.176094-8.130051L772.746218 7.347156a67.840752 67.840752 0 0 1 57.452355-1.8669l475.66816 203.973927a67.32886 67.32886 0 0 1 35.410886 88.557325z m-639.563951 587.290739a48.900747 48.900747 0 0 0-66.425521-21.017686c-24.480485 12.646745-34.417213 42.547263-22.222138 66.786857a48.900747 48.900747 0 0 0 66.39541 21.047797c24.480485-12.646745 34.447324-42.547263 22.28236-66.816968z m693.523395-363.262689a48.900747 48.900747 0 0 0-66.39541-21.047797c-24.480485 12.646745-34.447324 42.547263-22.252248 66.816969a48.900747 48.900747 0 0 0 66.425521 21.017685c24.480485-12.646745 34.417213-42.547263 22.222137-66.786857z" fill="#ffffff" opacity=".5" p-id="2327"></path></svg>