<svg width="23" height="22" viewBox="0 0 23 22" fill="none" xmlns="http://www.w3.org/2000/svg">
<path d="M20.3401 3.60999C19.8294 3.099 19.2229 2.69364 18.5555 2.41708C17.888 2.14052 17.1726 1.99817 16.4501 1.99817C15.7276 1.99817 15.0122 2.14052 14.3448 2.41708C13.6773 2.69364 13.0709 3.099 12.5601 3.60999L11.5001 4.66999L10.4401 3.60999C9.40843 2.5783 8.00915 1.9987 6.55012 1.9987C5.09109 1.9987 3.69181 2.5783 2.66012 3.60999C1.62843 4.64169 1.04883 6.04096 1.04883 7.49999C1.04883 8.95903 1.62843 10.3583 2.66012 11.39L3.72012 12.45L11.5001 20.23L19.2801 12.45L20.3401 11.39C20.8511 10.8792 21.2565 10.2728 21.533 9.60535C21.8096 8.93789 21.9519 8.22248 21.9519 7.49999C21.9519 6.77751 21.8096 6.0621 21.533 5.39464C21.2565 4.72718 20.8511 4.12075 20.3401 3.60999V3.60999Z" stroke="#D5FF40" stroke-width="2" stroke-linecap="round" stroke-linejoin="round"/>
</svg>
