<?xml version="1.0" encoding="UTF-8"?>
<svg width="14px" height="13px" viewBox="0 0 14 13" version="1.1" xmlns="http://www.w3.org/2000/svg" xmlns:xlink="http://www.w3.org/1999/xlink">
    <title>metamask (1)</title>
    <g id="页面-1" stroke="none" stroke-width="1" fill="none" fill-rule="evenodd">
        <g id="saima03盲盒详情" transform="translate(-1574.000000, -31.000000)" fill-rule="nonzero">
            <g id="metamask-(1)" transform="translate(1574.000000, 31.000000)">
                <polygon id="路径" fill="#E2761B" points="0.693916758 0.00436648437 6.12658316 4.03900549 5.12209068 1.6589526"></polygon>
                <path d="M13.2341284,0.00436648438 L7.84567131,4.07741682 L8.80160607,1.6589526 L13.2341284,0.00436648438 Z M2.6492708,9.35643791 L4.09513119,11.5734238 L1.00048264,12.4249957 L0.109774668,9.40572037 L2.64854605,9.35643791 L2.6492708,9.35643791 Z M13.8073994,9.40572037 L12.9232141,12.4249957 L9.8278408,11.5734238 L11.2744259,9.35643791 L13.8073994,9.40572037 L13.8073994,9.40572037 Z" id="形状" fill="#E4761B"></path>
                <path d="M10.0017789,5.610971 L10.8642219,6.91623143 L7.79131564,7.05248293 L7.90002695,3.7498334 L10.0017789,5.61169572 L10.0017789,5.610971 Z M3.92626629,5.610971 L6.05555844,3.71214682 L6.12658316,7.05320768 L3.05802531,6.91623143 L3.92626629,5.61169572 L3.92626629,5.610971 Z M9.8278408,11.5734238 L7.98264754,10.6725695 L9.57708006,9.42746262 L9.8278408,11.5726991 L9.8278408,11.5734238 Z M5.94612238,10.6725695 L4.09513119,11.5734238 L4.35168988,9.42818736 L5.94612238,10.6725695 Z" id="形状" fill="#E4761B"></path>
                <path d="M4.09513119,11.5734238 L5.94612238,10.6725695 L5.798275,11.8785402 L5.81494408,12.3858597 L4.09513119,11.5734238 L4.09513119,11.5734238 Z M9.8278408,11.5734238 L8.10802793,12.3865844 L8.11889906,11.879265 L7.98264754,10.6725695 L9.8278408,11.5734238 L9.8278408,11.5734238 Z" id="形状" fill="#D7C1B3"></path>
                <path d="M8.08048773,8.68010955 L9.61983984,8.20337424 L8.5334515,7.68010955 L8.08048773,8.68010955 L8.08048773,8.68010955 Z M5.84755746,8.68010955 L5.39459369,7.68087231 L4.30313217,8.20337424 L5.84755746,8.68010955 L5.84755746,8.68010955 Z" id="形状" fill="#233447"></path>
                <path d="M9.82711607,11.5734238 L9.56548418,9.35643791 L11.2744259,9.40572037 L9.82711607,11.5726991 L9.82711607,11.5734238 Z M4.35748781,9.35643791 L4.09513119,11.5734238 L2.64854605,9.40572037 L4.35748781,9.35643791 Z M3.05802531,6.91550668 L6.12585842,7.05320768 L5.84248428,8.63024637 L5.38879574,7.68083428 L4.29733422,8.1772826 L3.05802531,6.91623143 L3.05802531,6.91550668 Z M9.61983984,8.1772826 L8.52837832,7.68010955 L8.08048773,8.63024637 L7.7905909,7.05248293 L10.8649467,6.91623143 L9.61983984,8.1772826 Z" id="形状" fill="#CD6116"></path>
                <path d="M10.8649467,6.91550668 L9.57635531,9.42746262 L9.61983984,8.1772826 L10.8649467,6.91623143 L10.8649467,6.91550668 Z M4.29733422,8.1772826 L4.35168988,9.42746262 L3.05802531,6.91623143 L4.29733422,8.1772826 L4.29733422,8.1772826 Z M7.79131564,7.05320768 L8.08048773,8.63024637 L7.72029092,10.4921087 L7.63839508,8.04103107 L7.7905909,7.05248293 L7.79131564,7.05320768 Z M6.12585842,7.05320768 L6.2737058,8.03523314 L6.208479,10.4921087 L5.84248428,8.63024637 L6.12585842,7.05248293 L6.12585842,7.05320768 Z" id="形状" fill="#E4751F"></path>
                <path d="M5.84248428,8.63024637 L6.20775428,10.4921087 L5.94612238,10.6725695 L4.35168988,9.42746262 L4.29733422,8.1772826 L5.84248428,8.63024637 L5.84248428,8.63024637 Z M9.61983984,8.1772826 L9.57635531,9.42746262 L7.98192281,10.6725695 L7.72029092,10.4921087 L8.08048773,8.63024637 L9.61983984,8.1772826 L9.61983984,8.1772826 Z" id="形状" fill="#F6851B"></path>
                <polygon id="路径" fill="#C0AD9E" points="5.81494408 12.3865844 5.798275 11.879265 5.93525125 11.7589578 7.99351867 11.7589578 8.11889906 11.8785402 8.10802793 12.3858597 9.8278408 11.5734238 9.22702965 12.0640742 8.00946301 12.9105729 5.91858219 12.9105729 4.69594234 12.0640742 4.09513119 11.5734238"></polygon>
                <polygon id="路径" fill="#161616" points="5.94612238 10.6725695 6.20775428 10.4921087 7.72029092 10.4921087 7.98192281 10.6725695 8.11889906 11.8785402 7.99279395 11.7589578 5.93452652 11.7589578 5.798275 11.8785402 5.94612238 10.6725695"></polygon>
                <path d="M0.464898262,4.30136211 L0.00106335938,2.07350504 L0.693916758,0.00436648438 L5.94684713,3.90275398 L3.92626629,5.610971 L1.07078262,6.44587383 L0.437358066,5.70881117 L0.71058582,5.51240607 L0.273566367,5.11379795 L0.612020898,4.85144133 L0.175726191,4.51878473 L0.464898262,4.30063736 L0.464898262,4.30136211 Z M13.9226334,2.07422979 L13.4587985,4.30136211 L13.7530437,4.51950945 L13.3160243,4.8528908 L13.6494056,5.1145227 L13.2123862,5.51313082 L13.4856139,5.70953592 L12.8579873,6.44659857 L10.0025036,5.61169572 L7.98264754,3.90275398 L13.2341284,0.00436648438 L13.9226334,2.07350504 L13.9226334,2.07422979 Z" id="形状" fill="#763D16"></path>
                <path d="M1.07078262,6.44659857 L3.92626629,5.61169572 L3.05802531,6.91623143 L4.35168988,9.42746262 L2.64854605,9.40572037 L0.109774668,9.40572037 L1.07078262,6.44659857 L1.07078262,6.44659857 Z M10.0025036,5.610971 L12.8579873,6.44659857 L13.8073994,9.40572037 L11.2744259,9.40572037 L9.57635531,9.42746262 L10.8649467,6.91623143 L10.0025036,5.61169572 L10.0025036,5.610971 Z M6.12585842,7.05320768 L5.94684713,3.90202924 L5.11629273,1.6589526 L8.80160607,1.6589526 L7.98264754,3.90275398 L7.79131564,7.05248293 L7.72608887,8.04610428 L7.72029092,10.4921087 L6.20775428,10.4921087 L6.19688314,8.04610428 L6.12585842,7.05320768 Z" id="形状" fill="#F6851B"></path>
            </g>
        </g>
    </g>
</svg>