<?xml version="1.0" encoding="UTF-8"?>
<svg width="22px" height="20px" viewBox="0 0 22 20" version="1.1" xmlns="http://www.w3.org/2000/svg" xmlns:xlink="http://www.w3.org/1999/xlink">
    <title>路径备份 10</title>
    <g id="页面-1" stroke="none" stroke-width="1" fill="none" fill-rule="evenodd">
        <g id="hover1" transform="translate(-1261.000000, -2486.000000)" fill="#FFFFFF">
            <g id="编组-41" transform="translate(0.000000, 2313.000000)">
                <g id="编组-36" transform="translate(0.000000, 99.000000)">
                    <g id="编组-31" transform="translate(80.000000, 60.000000)">
                        <g id="编组-28" transform="translate(976.000000, 0.000000)">
                            <g id="编组-23" transform="translate(192.000000, 0.000000)">
                                <g id="编组-34" transform="translate(13.000000, 14.760000)">
                                    <path d="M20.515034,0.121510338 L1.02726432,7.64828634 C-0.302696279,8.18331825 -0.295002283,8.92641811 0.783255024,9.25778562 L5.78654478,10.8210475 L17.3626977,3.50564218 C17.9100699,3.1720729 18.410179,3.35151777 17.9991003,3.7170128 L8.62013025,12.1949566 L8.61793197,12.1949566 L8.62013025,12.1960575 L8.27499999,17.3614273 C8.78060485,17.3614273 9.00373046,17.1291398 9.28730883,16.8550185 L11.7175096,14.4881078 L16.7724589,18.2278267 C17.7045305,18.7419417 18.3739074,18.4777284 18.6058261,17.3636291 L21.9241327,1.70018473 C22.2637673,0.336183633 21.4042391,-0.281414925 20.515034,0.121510338 Z" id="路径备份-10"></path>
                                </g>
                            </g>
                        </g>
                    </g>
                </g>
            </g>
        </g>
    </g>
</svg>