<?xml version="1.0" encoding="UTF-8"?>
<svg width="22px" height="18px" viewBox="0 0 22 18" version="1.1" xmlns="http://www.w3.org/2000/svg" xmlns:xlink="http://www.w3.org/1999/xlink">
    <title>路径备份 9</title>
    <g id="页面-1" stroke="none" stroke-width="1" fill="none" fill-rule="evenodd">
        <g id="Create" transform="translate(-1068.000000, -1174.000000)" fill="#FFFFFF">
            <g id="编组-55" transform="translate(-1.000000, 1000.000000)">
                <g id="编组-36" transform="translate(0.000000, 99.000000)">
                    <g id="编组-31" transform="translate(80.000000, 60.000000)">
                        <g id="编组-28" transform="translate(976.000000, 0.000000)">
                            <g id="编组-33" transform="translate(13.000000, 15.200000)">
                                <path d="M22,2.09065089 C21.1909626,2.43431953 20.3105396,2.6816568 19.4036774,2.77798817 C20.3396226,2.22863905 21.0508352,1.3616568 21.3866122,0.330650888 C20.5220526,0.838343195 19.5438048,1.21065089 18.5258983,1.40331361 C17.7009975,0.536331361 16.529744,0 15.2315827,0 C12.733085,0 10.7237111,1.99431953 10.7237111,4.4416568 C10.7237111,4.78532544 10.7660137,5.12899408 10.8347554,5.45964497 C7.09361856,5.26698225 3.75700036,3.50698225 1.53875736,0.812307692 C1.14745824,1.47360947 0.925369547,2.22863905 0.925369547,3.0539645 C0.925369547,4.59526627 1.72118736,5.95431953 2.93474342,6.75360947 C2.19444778,6.72497041 1.49645475,6.51928994 0.896286504,6.18863905 L0.896286504,6.24331361 C0.896286504,8.4016568 2.44561952,10.1902959 4.51051556,10.6016568 C4.13243601,10.6979882 3.72791732,10.7526627 3.32339863,10.7526627 C3.02992429,10.7526627 2.75231342,10.7240237 2.47205865,10.6849704 C3.04314385,12.4449704 4.70616512,13.7233136 6.68645595,13.7649704 C5.13712294,14.96 3.19649081,15.6629586 1.08929215,15.6629586 C0.711212595,15.6629586 0.36221608,15.6499408 0,15.608284 C1.99879822,16.8710059 4.37038817,17.6 6.92440812,17.6 C15.2157193,17.6 19.752674,10.8359763 19.752674,4.96497041 C19.752674,4.77230769 19.752674,4.57964497 19.7394544,4.38698225 C20.6172335,3.75431953 21.3866122,2.97065089 22,2.09065089 Z" id="路径备份-9"></path>
                            </g>
                        </g>
                    </g>
                </g>
            </g>
        </g>
    </g>
</svg>