<svg width="28" height="28" viewBox="0 0 28 28" fill="none" xmlns="http://www.w3.org/2000/svg">
<path d="M21.9997 11.3333L16.6664 5.99999M1.33301 26.6667L5.8455 26.1653C6.39682 26.104 6.67248 26.0734 6.93014 25.99C7.15873 25.916 7.37627 25.8114 7.57686 25.6791C7.80295 25.5301 7.99907 25.3339 8.39131 24.9417L25.9997 7.33332C27.4725 5.86056 27.4725 3.47275 25.9997 1.99999C24.5269 0.527228 22.1391 0.527226 20.6664 1.99998L3.05798 19.6084C2.66574 20.0006 2.46961 20.1967 2.32052 20.4228C2.18825 20.6234 2.08369 20.8409 2.00969 21.0695C1.92628 21.3272 1.89565 21.6028 1.8344 22.1542L1.33301 26.6667Z" stroke="white" stroke-width="1.5" stroke-linecap="round" stroke-linejoin="round"/>
</svg>
